<?xml version="1.0" encoding="utf-8" standalone="no"?>
<!DOCTYPE svg PUBLIC "-//W3C//DTD SVG 1.1//EN"
  "http://www.w3.org/Graphics/SVG/1.1/DTD/svg11.dtd">
<svg xmlns:xlink="http://www.w3.org/1999/xlink" width="314.74517pt" height="287.775294pt" viewBox="0 0 314.74517 287.775294" xmlns="http://www.w3.org/2000/svg" version="1.1">
 <metadata>
  <rdf:RDF xmlns:dc="http://purl.org/dc/elements/1.1/" xmlns:cc="http://creativecommons.org/ns#" xmlns:rdf="http://www.w3.org/1999/02/22-rdf-syntax-ns#">
   <cc:Work>
    <dc:type rdf:resource="http://purl.org/dc/dcmitype/StillImage"/>
    <dc:date>2024-10-20T22:31:12.527259</dc:date>
    <dc:format>image/svg+xml</dc:format>
    <dc:creator>
     <cc:Agent>
      <dc:title>Matplotlib v3.9.2, https://matplotlib.org/</dc:title>
     </cc:Agent>
    </dc:creator>
   </cc:Work>
  </rdf:RDF>
 </metadata>
 <defs>
  <style type="text/css">*{stroke-linejoin: round; stroke-linecap: butt}</style>
 </defs>
 <g id="figure_1">
  <g id="patch_1">
   <path d="M 0 287.775294 
L 314.74517 287.775294 
L 314.74517 0 
L 0 0 
z
" style="fill: #ffffff"/>
  </g>
  <g id="axes_1">
   <g id="patch_2">
    <path d="M 78.5875 234.362794 
L 301.7875 234.362794 
L 301.7875 12.602794 
L 78.5875 12.602794 
z
" style="fill: #ffffff"/>
   </g>
   <g id="matplotlib.axis_1">
    <g id="xtick_1">
     <g id="line2d_1">
      <defs>
       <path id="m88a89fdc57" d="M 0 0 
L 0 -5 
" style="stroke: #808080"/>
      </defs>
      <g>
       <use xlink:href="#m88a89fdc57" x="88.732955" y="234.362794" style="fill: #808080; stroke: #808080"/>
      </g>
     </g>
     <g id="text_1">
      <!-- 0.0 -->
      <g transform="translate(72.82983 253.059669) scale(0.2 -0.2)">
       <defs>
        <path id="DejaVuSans-30" d="M 2034 4250 
Q 1547 4250 1301 3770 
Q 1056 3291 1056 2328 
Q 1056 1369 1301 889 
Q 1547 409 2034 409 
Q 2525 409 2770 889 
Q 3016 1369 3016 2328 
Q 3016 3291 2770 3770 
Q 2525 4250 2034 4250 
z
M 2034 4750 
Q 2819 4750 3233 4129 
Q 3647 3509 3647 2328 
Q 3647 1150 3233 529 
Q 2819 -91 2034 -91 
Q 1250 -91 836 529 
Q 422 1150 422 2328 
Q 422 3509 836 4129 
Q 1250 4750 2034 4750 
z
" transform="scale(0.015625)"/>
        <path id="DejaVuSans-2e" d="M 684 794 
L 1344 794 
L 1344 0 
L 684 0 
L 684 794 
z
" transform="scale(0.015625)"/>
       </defs>
       <use xlink:href="#DejaVuSans-30"/>
       <use xlink:href="#DejaVuSans-2e" x="63.623047"/>
       <use xlink:href="#DejaVuSans-30" x="95.410156"/>
      </g>
     </g>
    </g>
    <g id="xtick_2">
     <g id="line2d_2">
      <g>
       <use xlink:href="#m88a89fdc57" x="190.1875" y="234.362794" style="fill: #808080; stroke: #808080"/>
      </g>
     </g>
     <g id="text_2">
      <!-- 0.5 -->
      <g transform="translate(174.284375 253.059669) scale(0.2 -0.2)">
       <defs>
        <path id="DejaVuSans-35" d="M 691 4666 
L 3169 4666 
L 3169 4134 
L 1269 4134 
L 1269 2991 
Q 1406 3038 1543 3061 
Q 1681 3084 1819 3084 
Q 2600 3084 3056 2656 
Q 3513 2228 3513 1497 
Q 3513 744 3044 326 
Q 2575 -91 1722 -91 
Q 1428 -91 1123 -41 
Q 819 9 494 109 
L 494 744 
Q 775 591 1075 516 
Q 1375 441 1709 441 
Q 2250 441 2565 725 
Q 2881 1009 2881 1497 
Q 2881 1984 2565 2268 
Q 2250 2553 1709 2553 
Q 1456 2553 1204 2497 
Q 953 2441 691 2322 
L 691 4666 
z
" transform="scale(0.015625)"/>
       </defs>
       <use xlink:href="#DejaVuSans-30"/>
       <use xlink:href="#DejaVuSans-2e" x="63.623047"/>
       <use xlink:href="#DejaVuSans-35" x="95.410156"/>
      </g>
     </g>
    </g>
    <g id="xtick_3">
     <g id="line2d_3">
      <g>
       <use xlink:href="#m88a89fdc57" x="291.642045" y="234.362794" style="fill: #808080; stroke: #808080"/>
      </g>
     </g>
     <g id="text_3">
      <!-- 1.0 -->
      <g transform="translate(275.73892 253.059669) scale(0.2 -0.2)">
       <defs>
        <path id="DejaVuSans-31" d="M 794 531 
L 1825 531 
L 1825 4091 
L 703 3866 
L 703 4441 
L 1819 4666 
L 2450 4666 
L 2450 531 
L 3481 531 
L 3481 0 
L 794 0 
L 794 531 
z
" transform="scale(0.015625)"/>
       </defs>
       <use xlink:href="#DejaVuSans-31"/>
       <use xlink:href="#DejaVuSans-2e" x="63.623047"/>
       <use xlink:href="#DejaVuSans-30" x="95.410156"/>
      </g>
     </g>
    </g>
    <g id="text_4">
     <!-- False Positive Rate -->
     <g transform="translate(97.254687 276.415919) scale(0.2 -0.2)">
      <defs>
       <path id="DejaVuSans-46" d="M 628 4666 
L 3309 4666 
L 3309 4134 
L 1259 4134 
L 1259 2759 
L 3109 2759 
L 3109 2228 
L 1259 2228 
L 1259 0 
L 628 0 
L 628 4666 
z
" transform="scale(0.015625)"/>
       <path id="DejaVuSans-61" d="M 2194 1759 
Q 1497 1759 1228 1600 
Q 959 1441 959 1056 
Q 959 750 1161 570 
Q 1363 391 1709 391 
Q 2188 391 2477 730 
Q 2766 1069 2766 1631 
L 2766 1759 
L 2194 1759 
z
M 3341 1997 
L 3341 0 
L 2766 0 
L 2766 531 
Q 2569 213 2275 61 
Q 1981 -91 1556 -91 
Q 1019 -91 701 211 
Q 384 513 384 1019 
Q 384 1609 779 1909 
Q 1175 2209 1959 2209 
L 2766 2209 
L 2766 2266 
Q 2766 2663 2505 2880 
Q 2244 3097 1772 3097 
Q 1472 3097 1187 3025 
Q 903 2953 641 2809 
L 641 3341 
Q 956 3463 1253 3523 
Q 1550 3584 1831 3584 
Q 2591 3584 2966 3190 
Q 3341 2797 3341 1997 
z
" transform="scale(0.015625)"/>
       <path id="DejaVuSans-6c" d="M 603 4863 
L 1178 4863 
L 1178 0 
L 603 0 
L 603 4863 
z
" transform="scale(0.015625)"/>
       <path id="DejaVuSans-73" d="M 2834 3397 
L 2834 2853 
Q 2591 2978 2328 3040 
Q 2066 3103 1784 3103 
Q 1356 3103 1142 2972 
Q 928 2841 928 2578 
Q 928 2378 1081 2264 
Q 1234 2150 1697 2047 
L 1894 2003 
Q 2506 1872 2764 1633 
Q 3022 1394 3022 966 
Q 3022 478 2636 193 
Q 2250 -91 1575 -91 
Q 1294 -91 989 -36 
Q 684 19 347 128 
L 347 722 
Q 666 556 975 473 
Q 1284 391 1588 391 
Q 1994 391 2212 530 
Q 2431 669 2431 922 
Q 2431 1156 2273 1281 
Q 2116 1406 1581 1522 
L 1381 1569 
Q 847 1681 609 1914 
Q 372 2147 372 2553 
Q 372 3047 722 3315 
Q 1072 3584 1716 3584 
Q 2034 3584 2315 3537 
Q 2597 3491 2834 3397 
z
" transform="scale(0.015625)"/>
       <path id="DejaVuSans-65" d="M 3597 1894 
L 3597 1613 
L 953 1613 
Q 991 1019 1311 708 
Q 1631 397 2203 397 
Q 2534 397 2845 478 
Q 3156 559 3463 722 
L 3463 178 
Q 3153 47 2828 -22 
Q 2503 -91 2169 -91 
Q 1331 -91 842 396 
Q 353 884 353 1716 
Q 353 2575 817 3079 
Q 1281 3584 2069 3584 
Q 2775 3584 3186 3129 
Q 3597 2675 3597 1894 
z
M 3022 2063 
Q 3016 2534 2758 2815 
Q 2500 3097 2075 3097 
Q 1594 3097 1305 2825 
Q 1016 2553 972 2059 
L 3022 2063 
z
" transform="scale(0.015625)"/>
       <path id="DejaVuSans-20" transform="scale(0.015625)"/>
       <path id="DejaVuSans-50" d="M 1259 4147 
L 1259 2394 
L 2053 2394 
Q 2494 2394 2734 2622 
Q 2975 2850 2975 3272 
Q 2975 3691 2734 3919 
Q 2494 4147 2053 4147 
L 1259 4147 
z
M 628 4666 
L 2053 4666 
Q 2838 4666 3239 4311 
Q 3641 3956 3641 3272 
Q 3641 2581 3239 2228 
Q 2838 1875 2053 1875 
L 1259 1875 
L 1259 0 
L 628 0 
L 628 4666 
z
" transform="scale(0.015625)"/>
       <path id="DejaVuSans-6f" d="M 1959 3097 
Q 1497 3097 1228 2736 
Q 959 2375 959 1747 
Q 959 1119 1226 758 
Q 1494 397 1959 397 
Q 2419 397 2687 759 
Q 2956 1122 2956 1747 
Q 2956 2369 2687 2733 
Q 2419 3097 1959 3097 
z
M 1959 3584 
Q 2709 3584 3137 3096 
Q 3566 2609 3566 1747 
Q 3566 888 3137 398 
Q 2709 -91 1959 -91 
Q 1206 -91 779 398 
Q 353 888 353 1747 
Q 353 2609 779 3096 
Q 1206 3584 1959 3584 
z
" transform="scale(0.015625)"/>
       <path id="DejaVuSans-69" d="M 603 3500 
L 1178 3500 
L 1178 0 
L 603 0 
L 603 3500 
z
M 603 4863 
L 1178 4863 
L 1178 4134 
L 603 4134 
L 603 4863 
z
" transform="scale(0.015625)"/>
       <path id="DejaVuSans-74" d="M 1172 4494 
L 1172 3500 
L 2356 3500 
L 2356 3053 
L 1172 3053 
L 1172 1153 
Q 1172 725 1289 603 
Q 1406 481 1766 481 
L 2356 481 
L 2356 0 
L 1766 0 
Q 1100 0 847 248 
Q 594 497 594 1153 
L 594 3053 
L 172 3053 
L 172 3500 
L 594 3500 
L 594 4494 
L 1172 4494 
z
" transform="scale(0.015625)"/>
       <path id="DejaVuSans-76" d="M 191 3500 
L 800 3500 
L 1894 563 
L 2988 3500 
L 3597 3500 
L 2284 0 
L 1503 0 
L 191 3500 
z
" transform="scale(0.015625)"/>
       <path id="DejaVuSans-52" d="M 2841 2188 
Q 3044 2119 3236 1894 
Q 3428 1669 3622 1275 
L 4263 0 
L 3584 0 
L 2988 1197 
Q 2756 1666 2539 1819 
Q 2322 1972 1947 1972 
L 1259 1972 
L 1259 0 
L 628 0 
L 628 4666 
L 2053 4666 
Q 2853 4666 3247 4331 
Q 3641 3997 3641 3322 
Q 3641 2881 3436 2590 
Q 3231 2300 2841 2188 
z
M 1259 4147 
L 1259 2491 
L 2053 2491 
Q 2509 2491 2742 2702 
Q 2975 2913 2975 3322 
Q 2975 3731 2742 3939 
Q 2509 4147 2053 4147 
L 1259 4147 
z
" transform="scale(0.015625)"/>
      </defs>
      <use xlink:href="#DejaVuSans-46"/>
      <use xlink:href="#DejaVuSans-61" x="48.394531"/>
      <use xlink:href="#DejaVuSans-6c" x="109.673828"/>
      <use xlink:href="#DejaVuSans-73" x="137.457031"/>
      <use xlink:href="#DejaVuSans-65" x="189.556641"/>
      <use xlink:href="#DejaVuSans-20" x="251.080078"/>
      <use xlink:href="#DejaVuSans-50" x="282.867188"/>
      <use xlink:href="#DejaVuSans-6f" x="339.544922"/>
      <use xlink:href="#DejaVuSans-73" x="400.726562"/>
      <use xlink:href="#DejaVuSans-69" x="452.826172"/>
      <use xlink:href="#DejaVuSans-74" x="480.609375"/>
      <use xlink:href="#DejaVuSans-69" x="519.818359"/>
      <use xlink:href="#DejaVuSans-76" x="547.601562"/>
      <use xlink:href="#DejaVuSans-65" x="606.78125"/>
      <use xlink:href="#DejaVuSans-20" x="668.304688"/>
      <use xlink:href="#DejaVuSans-52" x="700.091797"/>
      <use xlink:href="#DejaVuSans-61" x="767.324219"/>
      <use xlink:href="#DejaVuSans-74" x="828.603516"/>
      <use xlink:href="#DejaVuSans-65" x="867.8125"/>
     </g>
    </g>
   </g>
   <g id="matplotlib.axis_2">
    <g id="ytick_1">
     <g id="line2d_4">
      <defs>
       <path id="ma383b5936e" d="M 0 0 
L 5 0 
" style="stroke: #808080"/>
      </defs>
      <g>
       <use xlink:href="#ma383b5936e" x="78.5875" y="234.362794" style="fill: #808080; stroke: #808080"/>
      </g>
     </g>
     <g id="text_5">
      <!-- 0.00 -->
      <g transform="translate(30.55625 241.961231) scale(0.2 -0.2)">
       <use xlink:href="#DejaVuSans-30"/>
       <use xlink:href="#DejaVuSans-2e" x="63.623047"/>
       <use xlink:href="#DejaVuSans-30" x="95.410156"/>
       <use xlink:href="#DejaVuSans-30" x="159.033203"/>
      </g>
     </g>
    </g>
    <g id="ytick_2">
     <g id="line2d_5">
      <g>
       <use xlink:href="#ma383b5936e" x="78.5875" y="179.471705" style="fill: #808080; stroke: #808080"/>
      </g>
     </g>
     <g id="text_6">
      <!-- 0.25 -->
      <g transform="translate(30.55625 187.070142) scale(0.2 -0.2)">
       <defs>
        <path id="DejaVuSans-32" d="M 1228 531 
L 3431 531 
L 3431 0 
L 469 0 
L 469 531 
Q 828 903 1448 1529 
Q 2069 2156 2228 2338 
Q 2531 2678 2651 2914 
Q 2772 3150 2772 3378 
Q 2772 3750 2511 3984 
Q 2250 4219 1831 4219 
Q 1534 4219 1204 4116 
Q 875 4013 500 3803 
L 500 4441 
Q 881 4594 1212 4672 
Q 1544 4750 1819 4750 
Q 2544 4750 2975 4387 
Q 3406 4025 3406 3419 
Q 3406 3131 3298 2873 
Q 3191 2616 2906 2266 
Q 2828 2175 2409 1742 
Q 1991 1309 1228 531 
z
" transform="scale(0.015625)"/>
       </defs>
       <use xlink:href="#DejaVuSans-30"/>
       <use xlink:href="#DejaVuSans-2e" x="63.623047"/>
       <use xlink:href="#DejaVuSans-32" x="95.410156"/>
       <use xlink:href="#DejaVuSans-35" x="159.033203"/>
      </g>
     </g>
    </g>
    <g id="ytick_3">
     <g id="line2d_6">
      <g>
       <use xlink:href="#ma383b5936e" x="78.5875" y="124.580616" style="fill: #808080; stroke: #808080"/>
      </g>
     </g>
     <g id="text_7">
      <!-- 0.50 -->
      <g transform="translate(30.55625 132.179053) scale(0.2 -0.2)">
       <use xlink:href="#DejaVuSans-30"/>
       <use xlink:href="#DejaVuSans-2e" x="63.623047"/>
       <use xlink:href="#DejaVuSans-35" x="95.410156"/>
       <use xlink:href="#DejaVuSans-30" x="159.033203"/>
      </g>
     </g>
    </g>
    <g id="ytick_4">
     <g id="line2d_7">
      <g>
       <use xlink:href="#ma383b5936e" x="78.5875" y="69.689527" style="fill: #808080; stroke: #808080"/>
      </g>
     </g>
     <g id="text_8">
      <!-- 0.75 -->
      <g transform="translate(30.55625 77.287964) scale(0.2 -0.2)">
       <defs>
        <path id="DejaVuSans-37" d="M 525 4666 
L 3525 4666 
L 3525 4397 
L 1831 0 
L 1172 0 
L 2766 4134 
L 525 4134 
L 525 4666 
z
" transform="scale(0.015625)"/>
       </defs>
       <use xlink:href="#DejaVuSans-30"/>
       <use xlink:href="#DejaVuSans-2e" x="63.623047"/>
       <use xlink:href="#DejaVuSans-37" x="95.410156"/>
       <use xlink:href="#DejaVuSans-35" x="159.033203"/>
      </g>
     </g>
    </g>
    <g id="ytick_5">
     <g id="line2d_8">
      <g>
       <use xlink:href="#ma383b5936e" x="78.5875" y="14.798437" style="fill: #808080; stroke: #808080"/>
      </g>
     </g>
     <g id="text_9">
      <!-- 1.00 -->
      <g transform="translate(30.55625 22.396875) scale(0.2 -0.2)">
       <use xlink:href="#DejaVuSans-31"/>
       <use xlink:href="#DejaVuSans-2e" x="63.623047"/>
       <use xlink:href="#DejaVuSans-30" x="95.410156"/>
       <use xlink:href="#DejaVuSans-30" x="159.033203"/>
      </g>
     </g>
    </g>
    <g id="text_10">
     <!-- True Positive Rate -->
     <g transform="translate(22.396875 212.542169) rotate(-90) scale(0.2 -0.2)">
      <defs>
       <path id="DejaVuSans-54" d="M -19 4666 
L 3928 4666 
L 3928 4134 
L 2272 4134 
L 2272 0 
L 1638 0 
L 1638 4134 
L -19 4134 
L -19 4666 
z
" transform="scale(0.015625)"/>
       <path id="DejaVuSans-72" d="M 2631 2963 
Q 2534 3019 2420 3045 
Q 2306 3072 2169 3072 
Q 1681 3072 1420 2755 
Q 1159 2438 1159 1844 
L 1159 0 
L 581 0 
L 581 3500 
L 1159 3500 
L 1159 2956 
Q 1341 3275 1631 3429 
Q 1922 3584 2338 3584 
Q 2397 3584 2469 3576 
Q 2541 3569 2628 3553 
L 2631 2963 
z
" transform="scale(0.015625)"/>
       <path id="DejaVuSans-75" d="M 544 1381 
L 544 3500 
L 1119 3500 
L 1119 1403 
Q 1119 906 1312 657 
Q 1506 409 1894 409 
Q 2359 409 2629 706 
Q 2900 1003 2900 1516 
L 2900 3500 
L 3475 3500 
L 3475 0 
L 2900 0 
L 2900 538 
Q 2691 219 2414 64 
Q 2138 -91 1772 -91 
Q 1169 -91 856 284 
Q 544 659 544 1381 
z
M 1991 3584 
L 1991 3584 
z
" transform="scale(0.015625)"/>
      </defs>
      <use xlink:href="#DejaVuSans-54"/>
      <use xlink:href="#DejaVuSans-72" x="46.333984"/>
      <use xlink:href="#DejaVuSans-75" x="87.447266"/>
      <use xlink:href="#DejaVuSans-65" x="150.826172"/>
      <use xlink:href="#DejaVuSans-20" x="212.349609"/>
      <use xlink:href="#DejaVuSans-50" x="244.136719"/>
      <use xlink:href="#DejaVuSans-6f" x="300.814453"/>
      <use xlink:href="#DejaVuSans-73" x="361.996094"/>
      <use xlink:href="#DejaVuSans-69" x="414.095703"/>
      <use xlink:href="#DejaVuSans-74" x="441.878906"/>
      <use xlink:href="#DejaVuSans-69" x="481.087891"/>
      <use xlink:href="#DejaVuSans-76" x="508.871094"/>
      <use xlink:href="#DejaVuSans-65" x="568.050781"/>
      <use xlink:href="#DejaVuSans-20" x="629.574219"/>
      <use xlink:href="#DejaVuSans-52" x="661.361328"/>
      <use xlink:href="#DejaVuSans-61" x="728.59375"/>
      <use xlink:href="#DejaVuSans-74" x="789.873047"/>
      <use xlink:href="#DejaVuSans-65" x="829.082031"/>
     </g>
    </g>
   </g>
   <g id="line2d_9">
    <path d="M 88.732955 234.362794 
L 88.838252 72.92452 
L 88.94355 72.92452 
L 89.048848 56.732254 
L 89.154146 56.732254 
L 89.259444 53.549159 
L 89.364742 53.479961 
L 89.47004 40.194 
L 89.575338 40.194 
L 89.680636 34.865775 
L 89.785934 34.865775 
L 89.891232 33.897007 
L 89.99653 33.897007 
L 90.101827 31.198296 
L 90.207125 31.198296 
L 90.312423 28.222795 
L 90.417721 28.222795 
L 90.523019 26.908038 
L 90.628317 26.908038 
L 90.733615 25.524084 
L 90.838913 25.524084 
L 90.838913 25.316491 
L 91.049509 25.316491 
L 91.154807 24.624513 
L 91.260105 24.624513 
L 91.365403 24.001734 
L 91.575998 24.001734 
L 91.575998 23.724943 
L 91.786594 23.724943 
L 91.786594 23.586548 
L 92.102488 23.586548 
L 92.207786 22.548582 
L 92.418382 22.479384 
L 92.52368 21.718209 
L 92.628978 21.718209 
L 92.734275 21.303023 
L 92.839573 21.303023 
L 92.944871 20.818639 
L 93.050169 20.818639 
L 93.050169 20.611046 
L 93.366063 20.541848 
L 93.366063 20.47265 
L 93.576659 20.47265 
L 93.681957 20.057464 
L 93.787255 20.057464 
L 93.892553 19.780673 
L 94.208446 19.711475 
L 94.208446 19.57308 
L 94.52434 19.503882 
L 94.52434 19.434685 
L 94.734936 19.434685 
L 94.840234 19.227091 
L 95.05083 19.227091 
L 95.156128 18.742707 
L 95.577319 18.67351 
L 95.682617 18.396719 
L 96.525001 18.327521 
L 96.525001 18.258323 
L 97.367384 18.189126 
L 97.367384 18.119928 
L 97.893874 18.05073 
L 97.893874 17.912335 
L 98.104469 17.912335 
L 98.104469 17.773939 
L 98.525661 17.704742 
L 98.525661 17.427951 
L 99.368044 17.358753 
L 99.368044 17.289555 
L 100.10513 17.220358 
L 100.10513 17.15116 
L 100.736917 17.081962 
L 100.736917 17.012764 
L 101.158109 16.943567 
L 101.158109 16.874369 
L 102.421684 16.805171 
L 102.421684 16.735974 
L 103.264067 16.666776 
L 103.264067 16.597578 
L 104.738238 16.52838 
L 104.738238 16.459183 
L 105.054132 16.389985 
L 105.054132 16.320787 
L 105.791218 16.25159 
L 105.791218 16.182392 
L 106.423005 16.182392 
L 106.423005 16.043996 
L 107.475984 15.974799 
L 107.475984 15.905601 
L 111.477305 15.836403 
L 111.477305 15.767206 
L 114.215051 15.698008 
L 114.215051 15.62881 
L 116.426307 15.559612 
L 116.426307 15.490415 
L 121.059416 15.421217 
L 121.059416 15.352019 
L 123.691864 15.282822 
L 123.691864 15.213624 
L 127.798483 15.144426 
L 127.798483 15.075228 
L 137.169998 15.006031 
L 137.169998 14.936833 
L 279.322189 14.867635 
L 279.322189 14.798437 
L 291.642045 14.798437 
L 291.642045 14.798437 
" clip-path="url(#p1dbe5672e1)" style="fill: none; stroke: #2ba77b; stroke-width: 3; stroke-linecap: square"/>
   </g>
   <g id="line2d_10">
    <path d="M 88.732955 234.362794 
L 88.839749 74.046507 
L 88.893146 74.0122 
L 88.99994 57.510566 
L 89.053337 57.510566 
L 89.160132 50.271804 
L 89.213529 50.271804 
L 89.320323 40.803091 
L 89.37372 40.803091 
L 89.480514 38.195764 
L 89.533911 38.195764 
L 89.640706 35.039527 
L 89.694103 35.039527 
L 89.800897 33.907398 
L 89.854294 33.907398 
L 89.961089 31.162843 
L 90.014486 31.162843 
L 90.12128 28.52121 
L 90.228074 28.52121 
L 90.334868 26.977398 
L 90.388266 26.977398 
L 90.49506 25.845269 
L 90.548457 25.845269 
L 90.601854 25.262051 
L 90.708648 25.262051 
L 90.815443 24.507299 
L 90.86884 24.507299 
L 90.975634 24.232843 
L 91.029031 24.232843 
L 91.135825 23.855467 
L 91.189222 23.855467 
L 91.296017 23.546705 
L 91.509605 23.478091 
L 91.6164 23.135022 
L 91.776591 23.100715 
L 91.883385 22.380269 
L 91.936782 22.380269 
L 92.043577 21.865665 
L 92.096974 21.865665 
L 92.203768 21.24814 
L 92.310562 21.14522 
L 92.417356 20.939378 
L 92.470754 20.939378 
L 92.577548 20.664923 
L 92.684342 20.562002 
L 92.684342 20.459081 
L 93.111519 20.35616 
L 93.218313 20.013091 
L 93.378505 19.91017 
L 93.431902 19.738636 
L 93.752285 19.670022 
L 93.752285 19.567101 
L 94.286256 19.46418 
L 94.39305 19.292645 
L 94.553242 19.258338 
L 94.553242 19.121111 
L 94.713433 19.121111 
L 94.713433 18.949576 
L 95.087213 18.846655 
L 95.194007 18.709428 
L 95.407596 18.606507 
L 95.407596 18.537893 
L 95.834773 18.434972 
L 95.834773 18.366358 
L 96.528935 18.263437 
L 96.582333 18.057596 
L 97.169701 17.988982 
L 97.276495 17.817447 
L 97.596878 17.78314 
L 97.650275 17.611606 
L 98.664821 17.508685 
L 98.718218 17.405764 
L 99.999749 17.302843 
L 99.999749 17.23423 
L 100.747309 17.165616 
L 100.854103 16.994081 
L 102.456017 16.89116 
L 102.456017 16.856853 
L 103.470562 16.753933 
L 103.470562 16.719626 
L 104.591902 16.616705 
L 104.591902 16.582398 
L 105.659844 16.479477 
L 105.659844 16.44517 
L 106.994773 16.342249 
L 106.994773 16.307942 
L 107.955921 16.239329 
L 107.955921 16.170715 
L 110.091806 16.067794 
L 110.091806 16.033487 
L 112.227691 15.930566 
L 112.227691 15.896259 
L 114.416974 15.793338 
L 114.416974 15.759032 
L 117.567404 15.656111 
L 117.567404 15.621804 
L 120.771232 15.518883 
L 120.771232 15.484576 
L 125.203194 15.381655 
L 125.203194 15.347348 
L 129.154581 15.244428 
L 129.154581 15.210121 
L 136.843768 15.1072 
L 136.843768 15.072893 
L 161.192859 14.969972 
L 161.192859 14.935665 
L 280.001471 14.832744 
L 280.001471 14.798437 
L 291.642045 14.798437 
L 291.642045 14.798437 
" clip-path="url(#p1dbe5672e1)" style="fill: none; stroke-dasharray: 11.1,4.8; stroke-dashoffset: 0; stroke: #e9a001; stroke-width: 3"/>
   </g>
   <g id="line2d_11">
    <path d="M 88.732955 234.362794 
L 291.642045 14.798437 
" clip-path="url(#p1dbe5672e1)" style="fill: none; stroke-dasharray: 11.1,4.8; stroke-dashoffset: 0; stroke: #2274b2; stroke-width: 3"/>
   </g>
   <g id="patch_3">
    <path d="M 78.5875 234.362794 
L 78.5875 12.602794 
" style="fill: none; stroke: #808080; stroke-width: 1.5; stroke-linejoin: miter; stroke-linecap: square"/>
   </g>
   <g id="patch_4">
    <path d="M 78.5875 234.362794 
L 301.7875 234.362794 
" style="fill: none; stroke: #808080; stroke-width: 1.5; stroke-linejoin: miter; stroke-linecap: square"/>
   </g>
   <g id="legend_1">
    <g id="patch_5">
     <path d="M 144.272188 227.862794 
L 292.6875 227.862794 
Q 295.2875 227.862794 295.2875 225.262794 
L 295.2875 188.399669 
Q 295.2875 185.799669 292.6875 185.799669 
L 144.272188 185.799669 
Q 141.672188 185.799669 141.672188 188.399669 
L 141.672188 225.262794 
Q 141.672188 227.862794 144.272188 227.862794 
z
" style="fill: #ffffff; opacity: 0.8; stroke: #cccccc; stroke-linejoin: miter"/>
    </g>
    <g id="line2d_12">
     <path d="M 146.872188 196.327638 
L 159.872188 196.327638 
L 172.872188 196.327638 
" style="fill: none; stroke: #2ba77b; stroke-width: 3; stroke-linecap: square"/>
    </g>
    <g id="text_11">
     <!-- Test area = 1.00 -->
     <g transform="translate(183.272188 200.877638) scale(0.13 -0.13)">
      <defs>
       <path id="DejaVuSans-3d" d="M 678 2906 
L 4684 2906 
L 4684 2381 
L 678 2381 
L 678 2906 
z
M 678 1631 
L 4684 1631 
L 4684 1100 
L 678 1100 
L 678 1631 
z
" transform="scale(0.015625)"/>
      </defs>
      <use xlink:href="#DejaVuSans-54"/>
      <use xlink:href="#DejaVuSans-65" x="44.083984"/>
      <use xlink:href="#DejaVuSans-73" x="105.607422"/>
      <use xlink:href="#DejaVuSans-74" x="157.707031"/>
      <use xlink:href="#DejaVuSans-20" x="196.916016"/>
      <use xlink:href="#DejaVuSans-61" x="228.703125"/>
      <use xlink:href="#DejaVuSans-72" x="289.982422"/>
      <use xlink:href="#DejaVuSans-65" x="328.845703"/>
      <use xlink:href="#DejaVuSans-61" x="390.369141"/>
      <use xlink:href="#DejaVuSans-20" x="451.648438"/>
      <use xlink:href="#DejaVuSans-3d" x="483.435547"/>
      <use xlink:href="#DejaVuSans-20" x="567.224609"/>
      <use xlink:href="#DejaVuSans-31" x="599.011719"/>
      <use xlink:href="#DejaVuSans-2e" x="662.634766"/>
      <use xlink:href="#DejaVuSans-30" x="694.421875"/>
      <use xlink:href="#DejaVuSans-30" x="758.044922"/>
     </g>
    </g>
    <g id="line2d_13">
     <path d="M 146.872188 215.4092 
L 159.872188 215.4092 
L 172.872188 215.4092 
" style="fill: none; stroke-dasharray: 11.1,4.8; stroke-dashoffset: 0; stroke: #e9a001; stroke-width: 3"/>
    </g>
    <g id="text_12">
     <!-- Val area = 1.00 -->
     <g transform="translate(183.272188 219.9592) scale(0.13 -0.13)">
      <defs>
       <path id="DejaVuSans-56" d="M 1831 0 
L 50 4666 
L 709 4666 
L 2188 738 
L 3669 4666 
L 4325 4666 
L 2547 0 
L 1831 0 
z
" transform="scale(0.015625)"/>
      </defs>
      <use xlink:href="#DejaVuSans-56"/>
      <use xlink:href="#DejaVuSans-61" x="60.658203"/>
      <use xlink:href="#DejaVuSans-6c" x="121.9375"/>
      <use xlink:href="#DejaVuSans-20" x="149.720703"/>
      <use xlink:href="#DejaVuSans-61" x="181.507812"/>
      <use xlink:href="#DejaVuSans-72" x="242.787109"/>
      <use xlink:href="#DejaVuSans-65" x="281.650391"/>
      <use xlink:href="#DejaVuSans-61" x="343.173828"/>
      <use xlink:href="#DejaVuSans-20" x="404.453125"/>
      <use xlink:href="#DejaVuSans-3d" x="436.240234"/>
      <use xlink:href="#DejaVuSans-20" x="520.029297"/>
      <use xlink:href="#DejaVuSans-31" x="551.816406"/>
      <use xlink:href="#DejaVuSans-2e" x="615.439453"/>
      <use xlink:href="#DejaVuSans-30" x="647.226562"/>
      <use xlink:href="#DejaVuSans-30" x="710.849609"/>
     </g>
    </g>
   </g>
  </g>
 </g>
 <defs>
  <clipPath id="p1dbe5672e1">
   <rect x="78.5875" y="12.602794" width="223.2" height="221.76"/>
  </clipPath>
 </defs>
</svg>
