<?xml version="1.0" encoding="utf-8" standalone="no"?>
<!DOCTYPE svg PUBLIC "-//W3C//DTD SVG 1.1//EN"
  "http://www.w3.org/Graphics/SVG/1.1/DTD/svg11.dtd">
<svg xmlns:xlink="http://www.w3.org/1999/xlink" width="296.19pt" height="195.237648pt" viewBox="0 0 296.19 195.237648" xmlns="http://www.w3.org/2000/svg" version="1.1">
 <metadata>
  <rdf:RDF xmlns:dc="http://purl.org/dc/elements/1.1/" xmlns:cc="http://creativecommons.org/ns#" xmlns:rdf="http://www.w3.org/1999/02/22-rdf-syntax-ns#">
   <cc:Work>
    <dc:type rdf:resource="http://purl.org/dc/dcmitype/StillImage"/>
    <dc:date>2024-10-14T17:52:19.737193</dc:date>
    <dc:format>image/svg+xml</dc:format>
    <dc:creator>
     <cc:Agent>
      <dc:title>Matplotlib v3.9.2, https://matplotlib.org/</dc:title>
     </cc:Agent>
    </dc:creator>
   </cc:Work>
  </rdf:RDF>
 </metadata>
 <defs>
  <style type="text/css">*{stroke-linejoin: round; stroke-linecap: butt}</style>
 </defs>
 <g id="figure_1">
  <g id="patch_1">
   <path d="M 0 195.237648 
L 296.19 195.237648 
L 296.19 0 
L 0 0 
z
" style="fill: #ffffff"/>
  </g>
  <g id="axes_1">
   <g id="patch_2">
    <path d="M 97.618824 176.412648 
C 118.515191 176.412648 138.558509 168.110434 153.334472 153.334472 
C 168.110434 138.558509 176.412648 118.515191 176.412648 97.618824 
C 176.412648 76.722458 168.110434 56.679139 153.334472 41.903177 
C 138.558509 27.127214 118.515191 18.825 97.618824 18.825 
C 76.722458 18.825 56.679139 27.127214 41.903177 41.903177 
C 27.127214 56.679139 18.825 76.722458 18.825 97.618824 
C 18.825 118.515191 27.127214 138.558509 41.903177 153.334472 
C 56.679139 168.110434 76.722458 176.412648 97.618824 176.412648 
z
" clip-path="url(#p62a508ff47)" style="fill: #2ba77b; opacity: 0.5"/>
   </g>
   <g id="patch_3">
    <path d="M 225.474783 176.412648 
C 235.403227 176.412648 244.926364 172.468036 251.946834 165.447566 
C 258.967304 158.427095 262.911917 148.903958 262.911917 138.975514 
C 262.911917 129.04707 258.967304 119.523933 251.946834 112.503462 
C 244.926364 105.482992 235.403227 101.53838 225.474783 101.53838 
C 215.546339 101.53838 206.023201 105.482992 199.002731 112.503462 
C 191.982261 119.523933 188.037648 129.04707 188.037648 138.975514 
C 188.037648 148.903958 191.982261 158.427095 199.002731 165.447566 
C 206.023201 172.468036 215.546339 176.412648 225.474783 176.412648 
z
" clip-path="url(#p62a508ff47)" style="fill: #e9a001; opacity: 0.5"/>
   </g>
   <g id="patch_4">
    <path d="M 274.555958 176.412648 
C 274.561008 176.412648 274.565852 176.410642 274.569423 176.407071 
C 274.572994 176.4035 274.575 176.398657 274.575 176.393607 
C 274.575 176.388557 274.572994 176.383713 274.569423 176.380142 
C 274.565852 176.376572 274.561008 176.374565 274.555958 176.374565 
C 274.550909 176.374565 274.546065 176.376572 274.542494 176.380142 
C 274.538923 176.383713 274.536917 176.388557 274.536917 176.393607 
C 274.536917 176.398657 274.538923 176.4035 274.542494 176.407071 
C 274.546065 176.410642 274.550909 176.412648 274.555958 176.412648 
z
" clip-path="url(#p62a508ff47)" style="fill: #2274b2; opacity: 0.5"/>
   </g>
   <g id="patch_5">
    <path d="M 274.517875 176.43169 
L 274.594042 176.43169 
L 274.594042 176.355524 
L 274.517875 176.355524 
L 274.517875 176.43169 
z
" clip-path="url(#p62a508ff47)" style="fill: none; stroke: #808080; stroke-linejoin: miter"/>
   </g>
  </g>
  <g id="axes_2">
   <g id="patch_6">
    <path d="M 273.75679 154.965782 
L 288.99 154.965782 
L 288.99 139.732573 
L 273.75679 139.732573 
z
" style="fill: #ffffff"/>
   </g>
   <g id="patch_7">
    <path d="M -35106.053469 151.15748 
C -30926.780183 151.15748 -26918.116473 -1509.285396 -23962.923992 -4464.477877 
C -21007.731511 -7419.670358 -19347.288635 -11428.334068 -19347.288635 -15607.607354 
C -19347.288635 -19786.88064 -21007.731511 -23795.54435 -23962.923992 -26750.736831 
C -26918.116473 -29705.929312 -30926.780183 -31366.372188 -35106.053469 -31366.372188 
C -39285.326755 -31366.372188 -43293.990465 -29705.929312 -46249.182946 -26750.736831 
C -49204.375427 -23795.54435 -50864.818302 -19786.88064 -50864.818302 -15607.607354 
C -50864.818302 -11428.334068 -49204.375427 -7419.670358 -46249.182946 -4464.477877 
C -43293.990465 -1509.285396 -39285.326755 151.15748 -35106.053469 151.15748 
z
" clip-path="url(#pd3eb7ed55f)" style="fill: #2ba77b; opacity: 0.5"/>
   </g>
   <g id="patch_8">
    <path d="M -9534.861771 151.15748 
C -7549.172956 151.15748 -5644.545489 -637.765048 -4240.451462 -2041.859075 
C -2836.357435 -3445.953102 -2047.434907 -5350.580569 -2047.434907 -7336.269384 
C -2047.434907 -9321.958199 -2836.357435 -11226.585666 -4240.451462 -12630.679693 
C -5644.545489 -14034.77372 -7549.172956 -14823.696248 -9534.861771 -14823.696248 
C -11520.550586 -14823.696248 -13425.178054 -14034.77372 -14829.27208 -12630.679693 
C -16233.366107 -11226.585666 -17022.288635 -9321.958199 -17022.288635 -7336.269384 
C -17022.288635 -5350.580569 -16233.366107 -3445.953102 -14829.27208 -2041.859075 
C -13425.178054 -637.765048 -11520.550586 151.15748 -9534.861771 151.15748 
z
" clip-path="url(#pd3eb7ed55f)" style="fill: #e9a001; opacity: 0.5"/>
   </g>
   <g id="patch_9">
    <path d="M 281.373395 151.15748 
C 282.383369 151.15748 283.352112 150.756213 284.066272 150.042054 
C 284.780431 149.327895 285.181698 148.359151 285.181698 147.349177 
C 285.181698 146.339204 284.780431 145.37046 284.066272 144.656301 
C 283.352112 143.942142 282.383369 143.540875 281.373395 143.540875 
C 280.363422 143.540875 279.394678 143.942142 278.680519 144.656301 
C 277.966359 145.37046 277.565093 146.339204 277.565093 147.349177 
C 277.565093 148.359151 277.966359 149.327895 278.680519 150.042054 
C 279.394678 150.756213 280.363422 151.15748 281.373395 151.15748 
z
" clip-path="url(#pd3eb7ed55f)" style="fill: #2274b2; opacity: 0.5"/>
   </g>
   <g id="patch_10">
    <path d="M 273.75679 139.732573 
L 274.517875 176.355524 
" style="fill: none; stroke: #808080; stroke-linejoin: miter"/>
   </g>
   <g id="patch_11">
    <path d="M 288.99 154.965782 
L 274.594042 176.43169 
" style="fill: none; stroke: #808080; stroke-linejoin: miter"/>
   </g>
   <g id="matplotlib.axis_1"/>
   <g id="matplotlib.axis_2"/>
   <g id="patch_12">
    <path d="M 273.75679 154.965782 
L 273.75679 139.732573 
" style="fill: none; stroke: #000000; stroke-linejoin: miter; stroke-linecap: square"/>
   </g>
   <g id="patch_13">
    <path d="M 288.99 154.965782 
L 288.99 139.732573 
" style="fill: none; stroke: #000000; stroke-linejoin: miter; stroke-linecap: square"/>
   </g>
   <g id="patch_14">
    <path d="M 273.75679 154.965782 
L 288.99 154.965782 
" style="fill: none; stroke: #000000; stroke-linejoin: miter; stroke-linecap: square"/>
   </g>
   <g id="patch_15">
    <path d="M 273.75679 139.732573 
L 288.99 139.732573 
" style="fill: none; stroke: #000000; stroke-linejoin: miter; stroke-linecap: square"/>
   </g>
  </g>
 </g>
 <defs>
  <clipPath id="p62a508ff47">
   <rect x="7.2" y="7.2" width="279" height="180.837648"/>
  </clipPath>
  <clipPath id="pd3eb7ed55f">
   <rect x="273.75679" y="139.732573" width="15.23321" height="15.23321"/>
  </clipPath>
 </defs>
</svg>
