<?xml version="1.0" encoding="utf-8" standalone="no"?>
<!DOCTYPE svg PUBLIC "-//W3C//DTD SVG 1.1//EN"
  "http://www.w3.org/Graphics/SVG/1.1/DTD/svg11.dtd">
<svg xmlns:xlink="http://www.w3.org/1999/xlink" width="302.02017pt" height="260.329749pt" viewBox="0 0 302.02017 260.329749" xmlns="http://www.w3.org/2000/svg" version="1.1">
 <metadata>
  <rdf:RDF xmlns:dc="http://purl.org/dc/elements/1.1/" xmlns:cc="http://creativecommons.org/ns#" xmlns:rdf="http://www.w3.org/1999/02/22-rdf-syntax-ns#">
   <cc:Work>
    <dc:type rdf:resource="http://purl.org/dc/dcmitype/StillImage"/>
    <dc:date>2024-10-14T11:35:33.092220</dc:date>
    <dc:format>image/svg+xml</dc:format>
    <dc:creator>
     <cc:Agent>
      <dc:title>Matplotlib v3.9.2, https://matplotlib.org/</dc:title>
     </cc:Agent>
    </dc:creator>
   </cc:Work>
  </rdf:RDF>
 </metadata>
 <defs>
  <style type="text/css">*{stroke-linejoin: round; stroke-linecap: butt}</style>
 </defs>
 <g id="figure_1">
  <g id="patch_1">
   <path d="M 0 260.329749 
L 302.02017 260.329749 
L 302.02017 0 
L 0 0 
z
" style="fill: #ffffff"/>
  </g>
  <g id="axes_1">
   <g id="patch_2">
    <path d="M 65.8625 206.917249 
L 289.0625 206.917249 
L 289.0625 12.877249 
L 65.8625 12.877249 
z
" style="fill: #ffffff"/>
   </g>
   <g id="matplotlib.axis_1">
    <g id="xtick_1">
     <g id="line2d_1">
      <defs>
       <path id="m28455d7b19" d="M 0 0 
L 0 -5 
" style="stroke: #808080"/>
      </defs>
      <g>
       <use xlink:href="#m28455d7b19" x="76.007955" y="206.917249" style="fill: #808080; stroke: #808080"/>
      </g>
     </g>
     <g id="text_1">
      <!-- 0.0 -->
      <g transform="translate(60.10483 225.614124) scale(0.2 -0.2)">
       <defs>
        <path id="DejaVuSans-30" d="M 2034 4250 
Q 1547 4250 1301 3770 
Q 1056 3291 1056 2328 
Q 1056 1369 1301 889 
Q 1547 409 2034 409 
Q 2525 409 2770 889 
Q 3016 1369 3016 2328 
Q 3016 3291 2770 3770 
Q 2525 4250 2034 4250 
z
M 2034 4750 
Q 2819 4750 3233 4129 
Q 3647 3509 3647 2328 
Q 3647 1150 3233 529 
Q 2819 -91 2034 -91 
Q 1250 -91 836 529 
Q 422 1150 422 2328 
Q 422 3509 836 4129 
Q 1250 4750 2034 4750 
z
" transform="scale(0.015625)"/>
        <path id="DejaVuSans-2e" d="M 684 794 
L 1344 794 
L 1344 0 
L 684 0 
L 684 794 
z
" transform="scale(0.015625)"/>
       </defs>
       <use xlink:href="#DejaVuSans-30"/>
       <use xlink:href="#DejaVuSans-2e" x="63.623047"/>
       <use xlink:href="#DejaVuSans-30" x="95.410156"/>
      </g>
     </g>
    </g>
    <g id="xtick_2">
     <g id="line2d_2">
      <g>
       <use xlink:href="#m28455d7b19" x="177.4625" y="206.917249" style="fill: #808080; stroke: #808080"/>
      </g>
     </g>
     <g id="text_2">
      <!-- 0.5 -->
      <g transform="translate(161.559375 225.614124) scale(0.2 -0.2)">
       <defs>
        <path id="DejaVuSans-35" d="M 691 4666 
L 3169 4666 
L 3169 4134 
L 1269 4134 
L 1269 2991 
Q 1406 3038 1543 3061 
Q 1681 3084 1819 3084 
Q 2600 3084 3056 2656 
Q 3513 2228 3513 1497 
Q 3513 744 3044 326 
Q 2575 -91 1722 -91 
Q 1428 -91 1123 -41 
Q 819 9 494 109 
L 494 744 
Q 775 591 1075 516 
Q 1375 441 1709 441 
Q 2250 441 2565 725 
Q 2881 1009 2881 1497 
Q 2881 1984 2565 2268 
Q 2250 2553 1709 2553 
Q 1456 2553 1204 2497 
Q 953 2441 691 2322 
L 691 4666 
z
" transform="scale(0.015625)"/>
       </defs>
       <use xlink:href="#DejaVuSans-30"/>
       <use xlink:href="#DejaVuSans-2e" x="63.623047"/>
       <use xlink:href="#DejaVuSans-35" x="95.410156"/>
      </g>
     </g>
    </g>
    <g id="xtick_3">
     <g id="line2d_3">
      <g>
       <use xlink:href="#m28455d7b19" x="278.917045" y="206.917249" style="fill: #808080; stroke: #808080"/>
      </g>
     </g>
     <g id="text_3">
      <!-- 1.0 -->
      <g transform="translate(263.01392 225.614124) scale(0.2 -0.2)">
       <defs>
        <path id="DejaVuSans-31" d="M 794 531 
L 1825 531 
L 1825 4091 
L 703 3866 
L 703 4441 
L 1819 4666 
L 2450 4666 
L 2450 531 
L 3481 531 
L 3481 0 
L 794 0 
L 794 531 
z
" transform="scale(0.015625)"/>
       </defs>
       <use xlink:href="#DejaVuSans-31"/>
       <use xlink:href="#DejaVuSans-2e" x="63.623047"/>
       <use xlink:href="#DejaVuSans-30" x="95.410156"/>
      </g>
     </g>
    </g>
    <g id="text_4">
     <!-- False Positive Rate -->
     <g transform="translate(84.529687 248.970374) scale(0.2 -0.2)">
      <defs>
       <path id="DejaVuSans-46" d="M 628 4666 
L 3309 4666 
L 3309 4134 
L 1259 4134 
L 1259 2759 
L 3109 2759 
L 3109 2228 
L 1259 2228 
L 1259 0 
L 628 0 
L 628 4666 
z
" transform="scale(0.015625)"/>
       <path id="DejaVuSans-61" d="M 2194 1759 
Q 1497 1759 1228 1600 
Q 959 1441 959 1056 
Q 959 750 1161 570 
Q 1363 391 1709 391 
Q 2188 391 2477 730 
Q 2766 1069 2766 1631 
L 2766 1759 
L 2194 1759 
z
M 3341 1997 
L 3341 0 
L 2766 0 
L 2766 531 
Q 2569 213 2275 61 
Q 1981 -91 1556 -91 
Q 1019 -91 701 211 
Q 384 513 384 1019 
Q 384 1609 779 1909 
Q 1175 2209 1959 2209 
L 2766 2209 
L 2766 2266 
Q 2766 2663 2505 2880 
Q 2244 3097 1772 3097 
Q 1472 3097 1187 3025 
Q 903 2953 641 2809 
L 641 3341 
Q 956 3463 1253 3523 
Q 1550 3584 1831 3584 
Q 2591 3584 2966 3190 
Q 3341 2797 3341 1997 
z
" transform="scale(0.015625)"/>
       <path id="DejaVuSans-6c" d="M 603 4863 
L 1178 4863 
L 1178 0 
L 603 0 
L 603 4863 
z
" transform="scale(0.015625)"/>
       <path id="DejaVuSans-73" d="M 2834 3397 
L 2834 2853 
Q 2591 2978 2328 3040 
Q 2066 3103 1784 3103 
Q 1356 3103 1142 2972 
Q 928 2841 928 2578 
Q 928 2378 1081 2264 
Q 1234 2150 1697 2047 
L 1894 2003 
Q 2506 1872 2764 1633 
Q 3022 1394 3022 966 
Q 3022 478 2636 193 
Q 2250 -91 1575 -91 
Q 1294 -91 989 -36 
Q 684 19 347 128 
L 347 722 
Q 666 556 975 473 
Q 1284 391 1588 391 
Q 1994 391 2212 530 
Q 2431 669 2431 922 
Q 2431 1156 2273 1281 
Q 2116 1406 1581 1522 
L 1381 1569 
Q 847 1681 609 1914 
Q 372 2147 372 2553 
Q 372 3047 722 3315 
Q 1072 3584 1716 3584 
Q 2034 3584 2315 3537 
Q 2597 3491 2834 3397 
z
" transform="scale(0.015625)"/>
       <path id="DejaVuSans-65" d="M 3597 1894 
L 3597 1613 
L 953 1613 
Q 991 1019 1311 708 
Q 1631 397 2203 397 
Q 2534 397 2845 478 
Q 3156 559 3463 722 
L 3463 178 
Q 3153 47 2828 -22 
Q 2503 -91 2169 -91 
Q 1331 -91 842 396 
Q 353 884 353 1716 
Q 353 2575 817 3079 
Q 1281 3584 2069 3584 
Q 2775 3584 3186 3129 
Q 3597 2675 3597 1894 
z
M 3022 2063 
Q 3016 2534 2758 2815 
Q 2500 3097 2075 3097 
Q 1594 3097 1305 2825 
Q 1016 2553 972 2059 
L 3022 2063 
z
" transform="scale(0.015625)"/>
       <path id="DejaVuSans-20" transform="scale(0.015625)"/>
       <path id="DejaVuSans-50" d="M 1259 4147 
L 1259 2394 
L 2053 2394 
Q 2494 2394 2734 2622 
Q 2975 2850 2975 3272 
Q 2975 3691 2734 3919 
Q 2494 4147 2053 4147 
L 1259 4147 
z
M 628 4666 
L 2053 4666 
Q 2838 4666 3239 4311 
Q 3641 3956 3641 3272 
Q 3641 2581 3239 2228 
Q 2838 1875 2053 1875 
L 1259 1875 
L 1259 0 
L 628 0 
L 628 4666 
z
" transform="scale(0.015625)"/>
       <path id="DejaVuSans-6f" d="M 1959 3097 
Q 1497 3097 1228 2736 
Q 959 2375 959 1747 
Q 959 1119 1226 758 
Q 1494 397 1959 397 
Q 2419 397 2687 759 
Q 2956 1122 2956 1747 
Q 2956 2369 2687 2733 
Q 2419 3097 1959 3097 
z
M 1959 3584 
Q 2709 3584 3137 3096 
Q 3566 2609 3566 1747 
Q 3566 888 3137 398 
Q 2709 -91 1959 -91 
Q 1206 -91 779 398 
Q 353 888 353 1747 
Q 353 2609 779 3096 
Q 1206 3584 1959 3584 
z
" transform="scale(0.015625)"/>
       <path id="DejaVuSans-69" d="M 603 3500 
L 1178 3500 
L 1178 0 
L 603 0 
L 603 3500 
z
M 603 4863 
L 1178 4863 
L 1178 4134 
L 603 4134 
L 603 4863 
z
" transform="scale(0.015625)"/>
       <path id="DejaVuSans-74" d="M 1172 4494 
L 1172 3500 
L 2356 3500 
L 2356 3053 
L 1172 3053 
L 1172 1153 
Q 1172 725 1289 603 
Q 1406 481 1766 481 
L 2356 481 
L 2356 0 
L 1766 0 
Q 1100 0 847 248 
Q 594 497 594 1153 
L 594 3053 
L 172 3053 
L 172 3500 
L 594 3500 
L 594 4494 
L 1172 4494 
z
" transform="scale(0.015625)"/>
       <path id="DejaVuSans-76" d="M 191 3500 
L 800 3500 
L 1894 563 
L 2988 3500 
L 3597 3500 
L 2284 0 
L 1503 0 
L 191 3500 
z
" transform="scale(0.015625)"/>
       <path id="DejaVuSans-52" d="M 2841 2188 
Q 3044 2119 3236 1894 
Q 3428 1669 3622 1275 
L 4263 0 
L 3584 0 
L 2988 1197 
Q 2756 1666 2539 1819 
Q 2322 1972 1947 1972 
L 1259 1972 
L 1259 0 
L 628 0 
L 628 4666 
L 2053 4666 
Q 2853 4666 3247 4331 
Q 3641 3997 3641 3322 
Q 3641 2881 3436 2590 
Q 3231 2300 2841 2188 
z
M 1259 4147 
L 1259 2491 
L 2053 2491 
Q 2509 2491 2742 2702 
Q 2975 2913 2975 3322 
Q 2975 3731 2742 3939 
Q 2509 4147 2053 4147 
L 1259 4147 
z
" transform="scale(0.015625)"/>
      </defs>
      <use xlink:href="#DejaVuSans-46"/>
      <use xlink:href="#DejaVuSans-61" x="48.394531"/>
      <use xlink:href="#DejaVuSans-6c" x="109.673828"/>
      <use xlink:href="#DejaVuSans-73" x="137.457031"/>
      <use xlink:href="#DejaVuSans-65" x="189.556641"/>
      <use xlink:href="#DejaVuSans-20" x="251.080078"/>
      <use xlink:href="#DejaVuSans-50" x="282.867188"/>
      <use xlink:href="#DejaVuSans-6f" x="339.544922"/>
      <use xlink:href="#DejaVuSans-73" x="400.726562"/>
      <use xlink:href="#DejaVuSans-69" x="452.826172"/>
      <use xlink:href="#DejaVuSans-74" x="480.609375"/>
      <use xlink:href="#DejaVuSans-69" x="519.818359"/>
      <use xlink:href="#DejaVuSans-76" x="547.601562"/>
      <use xlink:href="#DejaVuSans-65" x="606.78125"/>
      <use xlink:href="#DejaVuSans-20" x="668.304688"/>
      <use xlink:href="#DejaVuSans-52" x="700.091797"/>
      <use xlink:href="#DejaVuSans-61" x="767.324219"/>
      <use xlink:href="#DejaVuSans-74" x="828.603516"/>
      <use xlink:href="#DejaVuSans-65" x="867.8125"/>
     </g>
    </g>
   </g>
   <g id="matplotlib.axis_2">
    <g id="ytick_1">
     <g id="line2d_4">
      <defs>
       <path id="mc0775d4fe6" d="M 0 0 
L 5 0 
" style="stroke: #808080"/>
      </defs>
      <g>
       <use xlink:href="#mc0775d4fe6" x="65.8625" y="206.917249" style="fill: #808080; stroke: #808080"/>
      </g>
     </g>
     <g id="text_5">
      <!-- 0.0 -->
      <g transform="translate(30.55625 214.515687) scale(0.2 -0.2)">
       <use xlink:href="#DejaVuSans-30"/>
       <use xlink:href="#DejaVuSans-2e" x="63.623047"/>
       <use xlink:href="#DejaVuSans-30" x="95.410156"/>
      </g>
     </g>
    </g>
    <g id="ytick_2">
     <g id="line2d_5">
      <g>
       <use xlink:href="#mc0775d4fe6" x="65.8625" y="110.857843" style="fill: #808080; stroke: #808080"/>
      </g>
     </g>
     <g id="text_6">
      <!-- 0.5 -->
      <g transform="translate(30.55625 118.456281) scale(0.2 -0.2)">
       <use xlink:href="#DejaVuSans-30"/>
       <use xlink:href="#DejaVuSans-2e" x="63.623047"/>
       <use xlink:href="#DejaVuSans-35" x="95.410156"/>
      </g>
     </g>
    </g>
    <g id="ytick_3">
     <g id="line2d_6">
      <g>
       <use xlink:href="#mc0775d4fe6" x="65.8625" y="14.798438" style="fill: #808080; stroke: #808080"/>
      </g>
     </g>
     <g id="text_7">
      <!-- 1.0 -->
      <g transform="translate(30.55625 22.396875) scale(0.2 -0.2)">
       <use xlink:href="#DejaVuSans-31"/>
       <use xlink:href="#DejaVuSans-2e" x="63.623047"/>
       <use xlink:href="#DejaVuSans-30" x="95.410156"/>
      </g>
     </g>
    </g>
    <g id="text_8">
     <!-- True Positive Rate -->
     <g transform="translate(22.396875 198.956624) rotate(-90) scale(0.2 -0.2)">
      <defs>
       <path id="DejaVuSans-54" d="M -19 4666 
L 3928 4666 
L 3928 4134 
L 2272 4134 
L 2272 0 
L 1638 0 
L 1638 4134 
L -19 4134 
L -19 4666 
z
" transform="scale(0.015625)"/>
       <path id="DejaVuSans-72" d="M 2631 2963 
Q 2534 3019 2420 3045 
Q 2306 3072 2169 3072 
Q 1681 3072 1420 2755 
Q 1159 2438 1159 1844 
L 1159 0 
L 581 0 
L 581 3500 
L 1159 3500 
L 1159 2956 
Q 1341 3275 1631 3429 
Q 1922 3584 2338 3584 
Q 2397 3584 2469 3576 
Q 2541 3569 2628 3553 
L 2631 2963 
z
" transform="scale(0.015625)"/>
       <path id="DejaVuSans-75" d="M 544 1381 
L 544 3500 
L 1119 3500 
L 1119 1403 
Q 1119 906 1312 657 
Q 1506 409 1894 409 
Q 2359 409 2629 706 
Q 2900 1003 2900 1516 
L 2900 3500 
L 3475 3500 
L 3475 0 
L 2900 0 
L 2900 538 
Q 2691 219 2414 64 
Q 2138 -91 1772 -91 
Q 1169 -91 856 284 
Q 544 659 544 1381 
z
M 1991 3584 
L 1991 3584 
z
" transform="scale(0.015625)"/>
      </defs>
      <use xlink:href="#DejaVuSans-54"/>
      <use xlink:href="#DejaVuSans-72" x="46.333984"/>
      <use xlink:href="#DejaVuSans-75" x="87.447266"/>
      <use xlink:href="#DejaVuSans-65" x="150.826172"/>
      <use xlink:href="#DejaVuSans-20" x="212.349609"/>
      <use xlink:href="#DejaVuSans-50" x="244.136719"/>
      <use xlink:href="#DejaVuSans-6f" x="300.814453"/>
      <use xlink:href="#DejaVuSans-73" x="361.996094"/>
      <use xlink:href="#DejaVuSans-69" x="414.095703"/>
      <use xlink:href="#DejaVuSans-74" x="441.878906"/>
      <use xlink:href="#DejaVuSans-69" x="481.087891"/>
      <use xlink:href="#DejaVuSans-76" x="508.871094"/>
      <use xlink:href="#DejaVuSans-65" x="568.050781"/>
      <use xlink:href="#DejaVuSans-20" x="629.574219"/>
      <use xlink:href="#DejaVuSans-52" x="661.361328"/>
      <use xlink:href="#DejaVuSans-61" x="728.59375"/>
      <use xlink:href="#DejaVuSans-74" x="789.873047"/>
      <use xlink:href="#DejaVuSans-65" x="829.082031"/>
     </g>
    </g>
   </g>
   <g id="line2d_7">
    <path d="M 76.007955 206.917249 
L 76.116462 163.616167 
L 76.333477 163.556688 
L 76.441985 134.590167 
L 76.550492 134.590167 
L 76.659 116.15152 
L 76.767507 116.15152 
L 76.876015 99.735175 
L 76.984522 99.735175 
L 77.09303 92.359716 
L 77.201537 92.359716 
L 77.310045 84.092065 
L 77.52706 84.032585 
L 77.635568 79.333704 
L 77.744075 79.333704 
L 77.852583 72.315122 
L 77.96109 72.315122 
L 78.069598 71.006573 
L 78.178105 71.006573 
L 78.286613 63.274237 
L 78.39512 63.274237 
L 78.503628 59.22963 
L 78.612135 59.22963 
L 78.720643 56.196175 
L 78.82915 56.196175 
L 78.82915 54.709188 
L 79.046166 54.709188 
L 79.154673 52.389487 
L 79.263181 52.389487 
L 79.371688 49.772388 
L 79.480196 49.772388 
L 79.588703 48.939675 
L 79.697211 48.939675 
L 79.805718 45.192466 
L 79.914226 45.192466 
L 80.022733 42.159011 
L 80.131241 42.159011 
L 80.239748 41.028901 
L 80.456763 41.028901 
L 80.565271 40.255667 
L 80.782286 40.196188 
L 80.890794 36.567938 
L 80.999301 36.567938 
L 81.107809 36.33002 
L 81.216316 36.33002 
L 81.216316 35.556786 
L 81.433331 35.556786 
L 81.541839 35.199909 
L 81.650346 35.199909 
L 81.758854 34.783552 
L 81.975869 34.724073 
L 82.084377 33.83188 
L 82.192884 33.83188 
L 82.301392 32.880208 
L 82.518407 32.880208 
L 82.626914 32.047495 
L 82.735422 32.047495 
L 82.843929 31.631138 
L 83.060944 31.631138 
L 83.169452 31.214782 
L 83.386467 31.155302 
L 83.494974 30.322589 
L 83.71199 30.26311 
L 83.820497 29.430397 
L 84.14602 29.370917 
L 84.254527 29.192479 
L 84.363035 29.192479 
L 84.363035 29.01404 
L 84.58005 29.01404 
L 84.688557 28.359765 
L 84.797065 28.359765 
L 84.905572 27.943409 
L 85.01408 27.943409 
L 85.122588 27.705491 
L 85.339603 27.705491 
L 85.44811 27.467573 
L 85.773633 27.467573 
L 85.773633 27.348614 
L 86.099155 27.348614 
L 86.207663 27.110696 
L 86.424678 27.051216 
L 86.424678 26.991737 
L 86.750201 26.932257 
L 86.858708 26.57538 
L 86.967216 26.57538 
L 87.075723 26.396942 
L 87.401246 26.337462 
L 87.401246 26.040065 
L 88.594829 25.980585 
L 88.703336 25.861626 
L 89.028859 25.861626 
L 89.137366 25.683188 
L 89.354381 25.623708 
L 89.462889 25.266831 
L 89.679904 25.207351 
L 89.679904 25.088392 
L 90.222442 25.088392 
L 90.330949 24.790995 
L 90.656472 24.731515 
L 90.764979 24.434118 
L 90.981994 24.434118 
L 91.090502 24.017761 
L 91.199009 24.017761 
L 91.307517 23.720364 
L 91.416025 23.720364 
L 91.416025 23.482446 
L 91.63304 23.482446 
L 91.741547 23.00661 
L 91.958562 22.94713 
L 91.958562 22.649733 
L 92.284085 22.649733 
L 92.284085 22.471294 
L 92.826623 22.411815 
L 92.93513 22.114417 
L 93.043638 22.114417 
L 93.152145 21.69806 
L 93.477668 21.69806 
L 93.477668 21.579101 
L 93.80319 21.579101 
L 93.80319 21.281704 
L 94.671251 21.222224 
L 94.671251 21.162745 
L 95.322296 21.103265 
L 95.322296 20.984306 
L 95.756326 20.924827 
L 95.864833 20.805868 
L 96.298864 20.746388 
L 96.298864 20.627429 
L 96.624386 20.56795 
L 96.624386 20.50847 
L 97.166924 20.448991 
L 97.275431 20.330032 
L 98.143492 20.270552 
L 98.143492 20.151593 
L 98.577522 20.151593 
L 98.577522 19.913675 
L 99.879612 19.913675 
L 99.879612 19.675757 
L 100.639165 19.616278 
L 100.639165 19.556798 
L 100.85618 19.556798 
L 100.85618 19.437839 
L 101.615733 19.37836 
L 101.615733 19.199921 
L 101.941255 19.140442 
L 101.941255 19.080962 
L 103.460361 19.021483 
L 103.460361 18.962003 
L 104.002899 18.902524 
L 104.002899 18.783565 
L 104.979466 18.724085 
L 104.979466 18.664606 
L 105.413497 18.605126 
L 105.413497 18.545647 
L 106.932602 18.486167 
L 106.932602 18.367208 
L 107.90917 18.307728 
L 107.90917 18.248249 
L 109.428275 18.248249 
L 109.428275 18.12929 
L 110.513351 18.06981 
L 110.513351 18.010331 
L 112.900517 17.950851 
L 113.009024 17.831892 
L 114.311114 17.772413 
L 114.311114 17.712933 
L 117.566341 17.653454 
L 117.566341 17.593974 
L 118.325893 17.534495 
L 118.434401 17.415536 
L 123.31724 17.356056 
L 123.425747 17.177618 
L 128.200079 17.118138 
L 128.200079 16.999179 
L 131.889335 16.9397 
L 131.889335 16.88022 
L 135.253069 16.820741 
L 135.253069 16.761261 
L 135.470084 16.761261 
L 135.470084 16.642302 
L 136.880682 16.582823 
L 136.880682 16.523343 
L 141.980536 16.463864 
L 141.980536 16.404384 
L 147.731435 16.344905 
L 147.731435 16.285425 
L 157.388606 16.285425 
L 157.388606 16.166466 
L 161.837415 16.106987 
L 161.837415 16.047507 
L 170.083988 15.988028 
L 170.083988 15.928548 
L 185.275043 15.869069 
L 185.275043 15.809589 
L 193.413108 15.75011 
L 193.413108 15.69063 
L 197.427886 15.631151 
L 197.427886 15.571671 
L 206.325504 15.512192 
L 206.325504 15.452712 
L 226.182383 15.393233 
L 226.182383 15.274274 
L 234.103433 15.214794 
L 234.103433 15.155315 
L 261.664347 15.095835 
L 261.664347 15.036356 
L 264.594051 14.976876 
L 264.594051 14.917397 
L 278.266 14.857917 
L 278.266 14.798438 
L 278.917045 14.798438 
L 278.917045 14.798438 
" clip-path="url(#pb0b7c184c9)" style="fill: none; stroke: #7bbbe0; stroke-width: 3; stroke-linecap: square"/>
   </g>
   <g id="line2d_8">
    <path d="M 76.007955 206.917249 
L 76.114749 198.421996 
L 76.168146 198.421996 
L 76.27494 163.270257 
L 76.435132 163.21022 
L 76.541926 144.688765 
L 76.595323 144.688765 
L 76.702117 124.456253 
L 76.755514 124.456253 
L 76.862309 115.780888 
L 76.915706 115.780888 
L 77.0225 106.685263 
L 77.075897 106.685263 
L 77.182691 94.557763 
L 77.236089 94.557763 
L 77.342883 92.666593 
L 77.39628 92.666593 
L 77.503074 89.214459 
L 77.609868 89.18444 
L 77.716663 85.282027 
L 77.823457 85.282027 
L 77.930251 82.850523 
L 77.983648 82.850523 
L 78.090443 79.098202 
L 78.14384 79.098202 
L 78.250634 73.904991 
L 78.304031 73.904991 
L 78.410825 72.704248 
L 78.464222 72.704248 
L 78.571017 71.593561 
L 78.624414 71.593561 
L 78.731208 67.661129 
L 78.784605 67.661129 
L 78.8914 66.250257 
L 78.944797 66.250257 
L 79.051591 62.708066 
L 79.104988 62.708066 
L 79.211782 60.306581 
L 79.265179 60.306581 
L 79.371974 56.914483 
L 79.425371 56.914483 
L 79.532165 55.323499 
L 79.585562 55.323499 
L 79.692356 53.612441 
L 79.745754 53.612441 
L 79.852548 51.000826 
L 79.959342 50.940789 
L 80.066136 49.950176 
L 80.172931 49.950176 
L 80.279725 47.488654 
L 80.333122 47.488654 
L 80.439916 46.1078 
L 80.493313 46.1078 
L 80.600108 44.006501 
L 80.706902 43.916445 
L 80.813696 43.226018 
L 80.867093 43.226018 
L 80.973888 42.505572 
L 81.027285 42.505572 
L 81.134079 41.214774 
L 81.187476 41.214774 
L 81.29427 40.854551 
L 81.347667 40.854551 
L 81.454462 39.443679 
L 81.507859 39.443679 
L 81.614653 37.522491 
L 81.66805 37.522491 
L 81.774844 37.252324 
L 81.881639 37.192287 
L 81.988433 36.561897 
L 82.04183 36.561897 
L 82.148624 36.111618 
L 82.255419 36.051581 
L 82.362213 35.541265 
L 82.41561 35.541265 
L 82.522404 35.090987 
L 82.575801 35.090987 
L 82.682596 34.340523 
L 82.735993 34.340523 
L 82.842787 33.77017 
L 82.896184 33.77017 
L 83.002978 33.56004 
L 83.216567 33.530022 
L 83.323361 33.079743 
L 83.430156 33.049725 
L 83.483553 32.599446 
L 83.643744 32.569428 
L 83.750538 32.359298 
L 83.91073 32.269242 
L 84.017524 31.969056 
L 84.070921 31.969056 
L 84.177715 31.518778 
L 84.231112 31.518778 
L 84.337907 31.218592 
L 84.444701 31.218592 
L 84.551495 30.468128 
L 84.658289 30.43811 
L 84.765084 30.288017 
L 84.871878 30.197961 
L 84.978672 29.987831 
L 85.192261 29.897775 
L 85.299055 29.747683 
L 85.352452 29.747683 
L 85.459246 29.147311 
L 85.512644 29.147311 
L 85.512644 29.027237 
L 85.726232 28.937181 
L 85.833026 28.787088 
L 85.993218 28.787088 
L 86.046615 28.606977 
L 86.366998 28.54694 
L 86.473792 28.216736 
L 87.007763 28.12668 
L 87.114557 27.886532 
L 87.221352 27.886532 
L 87.328146 27.616364 
L 87.648529 27.526309 
L 87.648529 27.226123 
L 88.129103 27.136067 
L 88.1825 27.046012 
L 88.609677 26.985975 
L 88.663074 26.835882 
L 88.876663 26.745826 
L 88.983457 26.415622 
L 89.197045 26.325566 
L 89.197045 26.235511 
L 89.731017 26.145455 
L 89.837811 26.025381 
L 89.998002 25.965343 
L 90.104797 25.785232 
L 90.264988 25.725195 
L 90.318385 25.545084 
L 90.425179 25.545084 
L 90.531974 25.304935 
L 90.638768 25.304935 
L 90.692165 25.064787 
L 90.852356 25.004749 
L 90.852356 24.944712 
L 91.012548 24.944712 
L 91.012548 24.734582 
L 91.279533 24.644527 
L 91.332931 24.524452 
L 91.439725 24.524452 
L 91.546519 24.254285 
L 91.760108 24.224267 
L 91.866902 23.9541 
L 92.133888 23.924081 
L 92.133888 23.804007 
L 92.45427 23.713951 
L 92.45427 23.653914 
L 92.774653 23.653914 
L 92.881447 23.413765 
L 93.041639 23.32371 
L 93.148433 23.203636 
L 93.362022 23.11358 
L 93.468816 22.963487 
L 93.57561 22.873431 
L 93.682404 22.723338 
L 93.842596 22.69332 
L 93.94939 22.48319 
L 94.376567 22.393134 
L 94.376567 22.333097 
L 94.857141 22.27306 
L 94.963935 22.092949 
L 95.44451 22.032912 
L 95.497907 21.912837 
L 95.925084 21.822782 
L 96.031878 21.762744 
L 96.245467 21.672689 
L 96.245467 21.64267 
L 96.779438 21.552614 
L 96.886232 21.462559 
L 97.580395 21.372503 
L 97.687189 21.252429 
L 98.114366 21.162373 
L 98.114366 21.132355 
L 98.327955 21.042299 
L 98.327955 20.892206 
L 98.755132 20.832169 
L 98.861926 20.622039 
L 99.609486 20.531983 
L 99.609486 20.501965 
L 99.823074 20.501965 
L 99.823074 20.38189 
L 100.410443 20.291835 
L 100.410443 20.261816 
L 100.997811 20.171761 
L 101.104605 20.081705 
L 101.318194 19.991649 
L 101.371591 19.931612 
L 101.638577 19.901593 
L 101.691974 19.781519 
L 102.065754 19.691463 
L 102.065754 19.661445 
L 102.973505 19.571389 
L 102.973505 19.541371 
L 103.400682 19.451315 
L 103.400682 19.421296 
L 103.827859 19.361259 
L 103.881256 19.271204 
L 104.842404 19.181148 
L 104.895801 19.121111 
L 105.322978 19.031055 
L 105.322978 19.001037 
L 106.871495 18.910981 
L 106.871495 18.880962 
L 108.313218 18.790907 
L 108.313218 18.760888 
L 109.327763 18.670832 
L 109.327763 18.640814 
L 110.929677 18.550758 
L 111.036471 18.490721 
L 112.745179 18.400665 
L 112.745179 18.370647 
L 114.453888 18.280591 
L 114.507285 18.220554 
L 115.949007 18.160517 
L 115.949007 18.10048 
L 117.711112 18.010424 
L 117.711112 17.950387 
L 118.458672 17.860331 
L 118.458672 17.830313 
L 121.075132 17.740257 
L 121.128529 17.68022 
L 123.851782 17.590164 
L 123.958577 17.47009 
L 126.788624 17.380034 
L 126.788624 17.350015 
L 129.244892 17.25996 
L 129.244892 17.229941 
L 134.050634 17.139886 
L 134.050634 17.109867 
L 134.904988 17.019811 
L 134.904988 16.989793 
L 136.239916 16.899737 
L 136.239916 16.869718 
L 138.535993 16.779663 
L 138.535993 16.749644 
L 141.205849 16.659588 
L 141.205849 16.62957 
L 146.331974 16.539514 
L 146.331974 16.509496 
L 153.914366 16.41944 
L 153.914366 16.389421 
L 160.215227 16.299366 
L 160.215227 16.269347 
L 168.224797 16.179291 
L 168.224797 16.149273 
L 173.938289 16.059217 
L 173.938289 16.029199 
L 187.661352 15.939143 
L 187.661352 15.909124 
L 195.937907 15.819069 
L 195.937907 15.78905 
L 199.996089 15.698994 
L 199.996089 15.668976 
L 209.554175 15.57892 
L 209.607572 15.518883 
L 222.316089 15.428827 
L 222.316089 15.398809 
L 231.713983 15.308753 
L 231.713983 15.278735 
L 243.995323 15.188679 
L 243.995323 15.15866 
L 259.800873 15.068605 
L 259.800873 15.038586 
L 265.514366 14.94853 
L 265.514366 14.918512 
L 278.27628 14.828456 
L 278.27628 14.798438 
L 278.917045 14.798438 
L 278.917045 14.798438 
" clip-path="url(#pb0b7c184c9)" style="fill: none; stroke-dasharray: 11.1,4.8; stroke-dashoffset: 0; stroke: #2274b2; stroke-width: 3"/>
   </g>
   <g id="line2d_9">
    <path d="M 76.007955 206.917249 
L 76.759072 171.415082 
L 76.866375 149.084039 
L 76.973677 147.886664 
L 77.08098 146.030733 
L 77.188282 145.432045 
L 77.295585 141.480708 
L 77.402887 141.181364 
L 77.51019 134.775408 
L 77.617493 134.775408 
L 77.724795 119.987827 
L 77.832098 119.927959 
L 77.9394 118.790453 
L 78.046703 118.790453 
L 78.154005 114.360165 
L 78.261308 114.360165 
L 78.36861 110.887778 
L 78.475913 110.887778 
L 78.583215 107.774603 
L 78.79782 107.774603 
L 78.905123 102.446284 
L 79.012425 102.446284 
L 79.119728 100.889697 
L 79.227031 100.889697 
L 79.334333 100.350878 
L 79.548938 100.350878 
L 79.656241 99.752191 
L 79.763543 99.752191 
L 79.763543 98.614685 
L 79.978148 98.614685 
L 80.085451 96.339672 
L 80.192753 96.339672 
L 80.300056 94.603478 
L 80.407358 94.603478 
L 80.514661 93.346235 
L 80.621963 93.346235 
L 80.729266 91.849516 
L 80.836569 91.849516 
L 80.836569 87.658704 
L 81.051174 87.658704 
L 81.158476 82.869204 
L 81.265779 82.869204 
L 81.373081 82.330385 
L 81.480384 82.330385 
L 81.587686 77.002067 
L 81.694989 77.002067 
L 81.802291 74.727054 
L 81.909594 74.727054 
L 82.016896 72.392173 
L 82.124199 72.392173 
L 82.231501 69.338867 
L 82.446107 69.278998 
L 82.553409 68.500704 
L 82.660712 68.500704 
L 82.660712 67.243461 
L 82.875317 67.243461 
L 82.982619 66.405298 
L 83.089922 66.405298 
L 83.197224 65.746742 
L 83.304527 65.746742 
L 83.411829 63.771073 
L 83.733737 63.771073 
L 83.841039 61.975011 
L 83.948342 61.975011 
L 84.055645 61.376323 
L 84.162947 61.376323 
L 84.27025 60.478292 
L 84.377552 60.478292 
L 84.484855 60.178948 
L 84.592157 60.178948 
L 84.69946 59.221048 
L 84.806762 59.221048 
L 84.914065 57.604592 
L 85.021367 57.604592 
L 85.12867 56.76643 
L 85.235972 56.76643 
L 85.343275 56.048005 
L 85.55788 56.048005 
L 85.665183 55.628924 
L 85.772485 55.628924 
L 85.772485 55.389449 
L 85.98709 55.389449 
L 85.98709 55.149974 
L 86.201695 55.149974 
L 86.308998 53.473649 
L 86.4163 53.473649 
L 86.523603 53.114436 
L 86.738208 53.054567 
L 86.84551 52.336142 
L 86.952813 52.336142 
L 87.060115 51.258505 
L 87.167418 51.258505 
L 87.274721 50.420342 
L 87.489326 50.420342 
L 87.489326 50.120999 
L 87.703931 50.120999 
L 87.811233 49.522311 
L 87.918536 49.522311 
L 88.025838 47.307168 
L 88.133141 47.307168 
L 88.240443 46.768349 
L 88.347746 46.768349 
L 88.455048 46.289399 
L 88.562351 46.289399 
L 88.669654 46.049924 
L 88.884259 45.990055 
L 88.991561 45.630843 
L 89.098864 45.630843 
L 89.206166 45.151893 
L 89.420771 45.151893 
L 89.528074 44.134124 
L 89.635376 44.134124 
L 89.742679 43.894649 
L 89.849981 43.894649 
L 89.957284 43.715043 
L 90.064586 43.715043 
L 90.171889 43.535436 
L 90.493797 43.475568 
L 90.493797 43.295961 
L 90.923007 43.295961 
L 91.030309 42.996618 
L 91.459519 42.936749 
L 91.566822 42.39793 
L 92.103335 42.338062 
L 92.210637 41.91898 
L 92.31794 41.91898 
L 92.31794 41.739374 
L 92.532545 41.739374 
L 92.639847 40.48213 
L 92.74715 40.48213 
L 92.74715 39.823574 
L 93.17636 39.763705 
L 93.283662 39.52423 
L 93.390965 39.52423 
L 93.498268 39.224887 
L 93.60557 39.224887 
L 93.712873 39.04528 
L 93.820175 39.04528 
L 93.927478 38.08738 
L 94.142083 38.027512 
L 94.249385 37.668299 
L 94.46399 37.668299 
L 94.571293 36.949874 
L 94.678595 36.949874 
L 94.678595 36.710399 
L 94.8932 36.710399 
L 94.8932 36.530793 
L 95.107806 36.530793 
L 95.215108 36.231449 
L 95.429713 36.231449 
L 95.429713 36.111712 
L 95.751621 36.051843 
L 95.858923 35.513024 
L 96.073528 35.513024 
L 96.180831 35.034074 
L 96.288133 35.034074 
L 96.395436 34.315649 
L 96.824646 34.255781 
L 96.931949 34.016306 
L 97.039251 34.016306 
L 97.146554 33.776831 
L 97.575764 33.716962 
L 97.575764 33.657093 
L 97.790369 33.657093 
L 97.790369 33.537356 
L 98.004974 33.537356 
L 98.112276 33.058406 
L 98.541487 33.058406 
L 98.648789 32.699193 
L 99.077999 32.639324 
L 99.185302 32.399849 
L 99.399907 32.399849 
L 99.507209 31.741293 
L 99.614512 31.741293 
L 99.721814 31.501818 
L 100.151025 31.441949 
L 100.151025 31.382081 
L 100.580235 31.322212 
L 100.580235 31.262343 
L 100.79484 31.262343 
L 100.79484 31.082737 
L 101.22405 31.022868 
L 101.331352 30.843262 
L 101.760563 30.783393 
L 101.760563 30.723524 
L 102.404378 30.723524 
L 102.404378 30.603787 
L 102.618983 30.603787 
L 102.618983 30.484049 
L 102.94089 30.424181 
L 102.94089 30.364312 
L 103.155496 30.364312 
L 103.262798 30.005099 
L 103.477403 29.945231 
L 103.584706 29.825493 
L 104.013916 29.825493 
L 104.013916 29.705756 
L 104.335823 29.645887 
L 104.443126 29.406412 
L 104.765034 29.406412 
L 104.765034 29.286674 
L 105.194244 29.226806 
L 105.301546 29.107068 
L 105.408849 29.107068 
L 105.516151 28.927462 
L 105.945361 28.867593 
L 105.945361 28.56825 
L 106.159966 28.56825 
L 106.267269 28.268906 
L 106.589177 28.209037 
L 106.589177 28.149168 
L 107.232992 28.0893 
L 107.232992 28.029431 
L 107.662202 27.969562 
L 107.769504 27.789956 
L 107.98411 27.730087 
L 107.98411 27.61035 
L 108.41332 27.550481 
L 108.520622 27.430743 
L 108.627925 27.430743 
L 108.735227 27.191268 
L 109.164437 27.191268 
L 109.164437 27.071531 
L 109.70095 27.071531 
L 109.70095 26.951793 
L 110.022858 26.951793 
L 110.13016 26.472843 
L 110.237463 26.472843 
L 110.344765 25.934025 
L 110.452068 25.934025 
L 110.452068 25.814287 
L 110.98858 25.754418 
L 111.095883 25.514943 
L 111.525093 25.455075 
L 111.632396 25.275468 
L 111.954303 25.2156 
L 111.954303 25.155731 
L 112.276211 25.155731 
L 112.383513 24.976125 
L 112.812724 24.916256 
L 112.812724 24.676781 
L 113.134631 24.676781 
L 113.134631 24.497175 
L 113.563841 24.437306 
L 113.671144 24.2577 
L 114.636867 24.197831 
L 114.636867 24.137962 
L 114.851472 24.137962 
L 114.851472 24.018225 
L 115.387984 23.958356 
L 115.387984 23.838618 
L 115.709892 23.838618 
L 115.709892 23.718881 
L 116.139102 23.659012 
L 116.139102 23.539275 
L 116.782917 23.539275 
L 116.89022 23.239931 
L 117.534035 23.239931 
L 117.534035 23.000456 
L 117.74864 23.000456 
L 117.74864 22.880718 
L 118.285153 22.82085 
L 118.392455 22.701112 
L 119.358178 22.701112 
L 119.465481 22.461637 
L 120.431203 22.401768 
L 120.431203 22.3419 
L 121.182321 22.282031 
L 121.182321 22.222162 
L 121.718834 22.222162 
L 121.718834 22.102425 
L 122.362649 22.102425 
L 122.469952 21.803081 
L 122.684557 21.743212 
L 122.791859 21.623475 
L 123.650279 21.563606 
L 123.650279 21.443869 
L 123.864885 21.443869 
L 123.864885 21.324131 
L 124.723305 21.264262 
L 124.723305 21.144525 
L 126.118238 21.084656 
L 126.22554 20.964919 
L 127.620473 20.90505 
L 127.620473 20.725444 
L 128.049683 20.665575 
L 128.049683 20.605706 
L 128.908104 20.545837 
L 128.908104 20.4261 
L 129.766524 20.4261 
L 129.766524 20.306362 
L 130.303037 20.306362 
L 130.303037 20.186625 
L 130.839549 20.126756 
L 130.839549 20.066887 
L 131.268759 20.007019 
L 131.268759 19.887281 
L 132.019877 19.827412 
L 132.019877 19.647806 
L 133.522113 19.587937 
L 133.522113 19.4682 
L 134.380533 19.408331 
L 134.380533 19.288594 
L 136.204676 19.228725 
L 136.204676 19.168856 
L 138.136121 19.108987 
L 138.136121 19.049119 
L 138.565332 18.98925 
L 138.672634 18.869512 
L 139.101844 18.809644 
L 139.101844 18.749775 
L 140.067567 18.689906 
L 140.067567 18.630037 
L 141.247895 18.570169 
L 141.247895 18.5103 
L 142.964735 18.450431 
L 142.964735 18.390562 
L 144.896181 18.330694 
L 144.896181 18.270825 
L 149.08098 18.210956 
L 149.08098 18.151087 
L 149.51019 18.151087 
L 149.51019 18.03135 
L 151.763543 17.971481 
L 151.763543 17.911612 
L 153.694989 17.851744 
L 153.694989 17.791875 
L 154.124199 17.732006 
L 154.124199 17.672137 
L 155.197224 17.672137 
L 155.197224 17.5524 
L 157.879788 17.5524 
L 157.879788 17.372794 
L 159.060115 17.372794 
L 159.060115 17.253056 
L 160.884259 17.193187 
L 160.884259 17.133319 
L 162.171889 17.07345 
L 162.171889 17.013581 
L 165.069057 16.953712 
L 165.069057 16.893844 
L 165.498268 16.893844 
L 165.498268 16.774106 
L 166.8932 16.714237 
L 166.8932 16.654369 
L 168.717344 16.5945 
L 168.717344 16.534631 
L 170.112276 16.474762 
L 170.112276 16.414894 
L 171.93642 16.355025 
L 172.043722 16.235287 
L 172.79484 16.175419 
L 172.79484 16.11555 
L 175.155496 16.055681 
L 175.155496 15.995812 
L 176.979639 15.935944 
L 176.979639 15.816206 
L 179.876807 15.756337 
L 180.198715 15.576731 
L 184.061606 15.516862 
L 184.061606 15.456994 
L 192.860414 15.397125 
L 192.860414 15.337256 
L 205.736718 15.277387 
L 205.736718 15.217519 
L 220.007955 15.15765 
L 220.115257 15.097781 
L 227.626434 15.037912 
L 228.484855 14.978044 
L 253.915555 14.918175 
L 257.563841 14.858306 
L 278.917045 14.798438 
L 278.917045 14.798438 
" clip-path="url(#pb0b7c184c9)" style="fill: none; stroke: #f3df3d; stroke-width: 3; stroke-linecap: square"/>
   </g>
   <g id="line2d_10">
    <path d="M 76.007955 206.917249 
L 76.702117 164.380944 
L 76.808911 149.731884 
L 76.862309 147.780678 
L 76.969103 144.80884 
L 77.0225 144.028357 
L 77.129294 141.776965 
L 77.236089 140.846389 
L 77.342883 135.80327 
L 77.39628 135.473066 
L 77.503074 128.238592 
L 77.556471 128.058481 
L 77.663266 120.013506 
L 77.716663 119.953468 
L 77.823457 118.632652 
L 77.876854 118.602633 
L 77.983648 114.610164 
L 78.037045 114.580145 
L 78.14384 112.38879 
L 78.197237 112.358772 
L 78.197237 112.298735 
L 78.304031 108.756544 
L 78.410825 108.666488 
L 78.51762 106.985449 
L 78.571017 106.985449 
L 78.677811 102.452645 
L 78.731208 102.452645 
L 78.731208 102.392608 
L 78.838002 100.89168 
L 78.8914 100.89168 
L 78.998194 100.531457 
L 79.051591 100.531457 
L 79.158385 98.760362 
L 79.265179 98.730343 
L 79.371974 96.839174 
L 79.425371 96.839174 
L 79.532165 94.6178 
L 79.585562 94.6178 
L 79.692356 93.837317 
L 79.745754 93.837317 
L 79.852548 92.456463 
L 79.959342 92.426445 
L 80.066136 91.916129 
L 80.119533 91.916129 
L 80.226328 89.274496 
L 80.279725 89.274496 
L 80.386519 87.143178 
L 80.439916 87.143178 
L 80.546711 82.430263 
L 80.600108 82.430263 
L 80.706902 81.319576 
L 80.813696 81.319576 
L 80.92049 78.10759 
L 81.027285 78.10759 
L 81.134079 76.156383 
L 81.187476 76.156383 
L 81.29427 75.225808 
L 81.347667 75.225808 
L 81.454462 74.025065 
L 81.507859 74.025065 
L 81.614653 73.124508 
L 81.66805 73.124508 
L 81.774844 72.794304 
L 81.828242 72.794304 
L 81.935036 70.813079 
L 81.988433 70.813079 
L 82.095227 69.73241 
L 82.148624 69.73241 
L 82.255419 68.89189 
L 82.308816 68.89189 
L 82.41561 66.880647 
L 82.522404 66.850628 
L 82.629199 65.890034 
L 82.735993 65.890034 
L 82.842787 65.169588 
L 82.949581 65.169588 
L 83.056376 63.638642 
L 83.109773 63.638642 
L 83.16317 63.218382 
L 83.323361 63.218382 
L 83.430156 61.597379 
L 83.590347 61.567361 
L 83.697141 61.027027 
L 83.750538 61.027027 
L 83.857333 60.54673 
L 83.91073 60.54673 
L 84.017524 60.096451 
L 84.070921 60.096451 
L 84.177715 59.165876 
L 84.231112 59.165876 
L 84.337907 58.02517 
L 84.391304 58.02517 
L 84.498098 57.124613 
L 84.604892 57.034558 
L 84.711687 56.674335 
L 84.765084 56.674335 
L 84.871878 56.224056 
L 84.978672 56.224056 
L 85.085467 55.713741 
L 85.245658 55.653704 
L 85.352452 55.023314 
L 85.405849 55.023314 
L 85.512644 53.612441 
L 85.566041 53.612441 
L 85.672835 52.952033 
L 85.779629 52.891996 
L 85.886423 52.231587 
L 85.939821 52.231587 
L 86.046615 51.481123 
L 86.100012 51.481123 
L 86.206806 50.730659 
L 86.3136 50.670622 
L 86.420395 50.130288 
L 86.473792 50.130288 
L 86.580586 49.439861 
L 86.633983 49.439861 
L 86.740778 48.809471 
L 86.847572 48.779452 
L 86.954366 47.548691 
L 87.007763 47.548691 
L 87.114557 47.15845 
L 87.167955 47.15845 
L 87.274749 46.828246 
L 87.381543 46.768209 
L 87.488337 46.377967 
L 87.80872 46.287912 
L 87.915514 46.047763 
L 88.022309 46.047763 
L 88.129103 45.537447 
L 88.235897 45.507429 
L 88.342691 44.726946 
L 88.396089 44.726946 
L 88.502883 44.426761 
L 88.663074 44.336705 
L 88.769868 43.946463 
L 88.93006 43.886426 
L 88.983457 43.706315 
L 89.30384 43.616259 
L 89.357237 43.376111 
L 89.464031 43.376111 
L 89.517428 43.195999 
L 89.784414 43.105944 
L 89.891208 42.655665 
L 90.158194 42.56561 
L 90.264988 42.025275 
L 90.371782 41.965238 
L 90.478577 41.004644 
L 90.692165 40.914588 
L 90.798959 40.434291 
L 91.065945 40.404273 
L 91.172739 40.134106 
L 91.279533 40.134106 
L 91.386328 39.893957 
L 91.493122 39.803902 
L 91.599916 39.62379 
L 91.653313 39.62379 
L 91.760108 39.353623 
L 91.813505 39.353623 
L 91.920299 38.813289 
L 92.187285 38.723233 
L 92.294079 38.393029 
L 92.400873 38.393029 
L 92.507667 37.822676 
L 92.561065 37.822676 
L 92.667859 37.522491 
L 92.82805 37.432435 
L 92.934844 37.042194 
L 93.095036 36.952138 
L 93.148433 36.681971 
L 93.468816 36.591915 
L 93.57561 36.231692 
L 93.629007 36.231692 
L 93.629007 36.021563 
L 93.789199 36.021563 
L 93.895993 35.781414 
L 94.002787 35.691358 
L 94.109581 35.511247 
L 94.162978 35.511247 
L 94.216376 35.361154 
L 94.483361 35.271098 
L 94.590156 35.03095 
L 94.910538 34.940894 
L 94.910538 34.880857 
L 95.177524 34.850838 
L 95.177524 34.700746 
L 95.44451 34.61069 
L 95.497907 34.340523 
L 95.711495 34.250467 
L 95.818289 34.010319 
L 95.925084 34.010319 
L 96.031878 33.680114 
L 96.085275 33.680114 
L 96.192069 33.500003 
L 96.245467 33.500003 
L 96.245467 33.319892 
L 96.619246 33.259855 
L 96.619246 33.169799 
L 96.886232 33.169799 
L 96.939629 32.899632 
L 97.260012 32.809576 
L 97.366806 32.50939 
L 97.633792 32.50939 
L 97.740586 32.119149 
L 97.900778 32.029093 
L 98.007572 31.818963 
L 98.167763 31.728908 
L 98.22116 31.668871 
L 98.488146 31.578815 
L 98.59494 31.488759 
L 98.915323 31.398704 
L 98.96872 31.338666 
L 99.235706 31.248611 
L 99.289103 31.128537 
L 99.556089 31.068499 
L 99.662883 30.948425 
L 100.036663 30.858369 
L 100.036663 30.828351 
L 100.250251 30.798332 
L 100.303648 30.648239 
L 100.410443 30.648239 
L 100.46384 30.43811 
L 100.624031 30.378072 
L 100.730825 30.257998 
L 100.944414 30.197961 
L 100.944414 30.137924 
L 101.158002 30.137924 
L 101.2114 29.867757 
L 101.478385 29.777701 
L 101.531782 29.687645 
L 101.798768 29.59759 
L 101.798768 29.567571 
L 102.225945 29.507534 
L 102.332739 29.38746 
L 102.439533 29.357441 
L 102.546328 29.207348 
L 102.653122 29.147311 
L 102.653122 29.087274 
L 103.080299 28.997218 
L 103.080299 28.9672 
L 103.667667 28.877144 
L 103.774462 28.667014 
L 104.255036 28.606977 
L 104.36183 28.306791 
L 104.575419 28.306791 
L 104.682213 28.156699 
L 104.789007 28.096662 
L 104.842404 27.946569 
L 105.536567 27.856513 
L 105.589964 27.796476 
L 105.803553 27.766457 
L 105.85695 27.646383 
L 106.284127 27.616364 
L 106.390921 27.49629 
L 106.818098 27.436253 
L 106.924892 27.28616 
L 107.085084 27.256142 
L 107.191878 27.046012 
L 107.672452 26.985975 
L 107.779246 26.775845 
L 108.206423 26.685789 
L 108.259821 26.625752 
L 108.580203 26.535696 
L 108.6336 26.44564 
L 108.847189 26.355585 
L 108.953983 26.235511 
L 109.167572 26.145455 
L 109.220969 25.995362 
L 109.487955 25.905306 
L 109.594749 25.695176 
L 109.861734 25.605121 
L 109.915132 25.545084 
L 110.609294 25.485046 
L 110.662691 25.304935 
L 110.983074 25.244898 
L 111.036471 25.154842 
L 111.356854 25.064787 
L 111.356854 25.034768 
L 111.784031 24.944712 
L 111.784031 24.854657 
L 112.157811 24.794619 
L 112.264605 24.674545 
L 112.531591 24.614508 
L 112.638385 24.524452 
L 112.958768 24.434397 
L 113.065562 24.284304 
L 113.652931 24.194248 
L 113.652931 24.16423 
L 114.453888 24.074174 
L 114.453888 24.044155 
L 114.667476 23.984118 
L 114.667476 23.924081 
L 114.934462 23.864044 
L 115.041256 23.683933 
L 115.201447 23.653914 
L 115.308242 23.53384 
L 116.002404 23.443784 
L 116.109199 23.293691 
L 116.856758 23.233654 
L 116.963553 23.11358 
L 117.283935 23.023524 
L 117.39073 22.963487 
L 117.871304 22.873431 
L 117.978098 22.813394 
L 118.191687 22.723338 
L 118.191687 22.633283 
L 119.099438 22.543227 
L 119.206232 22.363116 
L 120.113983 22.27306 
L 120.220778 22.152986 
L 120.754749 22.06293 
L 120.754749 22.032912 
L 121.075132 21.972874 
L 121.075132 21.912837 
L 121.769294 21.822782 
L 121.876089 21.732726 
L 122.249868 21.64267 
L 122.356663 21.582633 
L 122.890634 21.522596 
L 122.890634 21.462559 
L 123.211017 21.402522 
L 123.211017 21.342485 
L 123.905179 21.252429 
L 123.905179 21.22241 
L 124.385754 21.132355 
L 124.385754 21.102336 
L 125.987667 21.01228 
L 125.987667 20.982262 
L 126.361447 20.892206 
L 126.468242 20.80215 
L 127.109007 20.712095 
L 127.162404 20.652058 
L 127.749773 20.562002 
L 127.856567 20.471946 
L 128.230347 20.38189 
L 128.230347 20.351872 
L 129.458481 20.261816 
L 129.565275 20.201779 
L 129.725467 20.111723 
L 129.778864 20.051686 
L 130.740012 19.961631 
L 130.846806 19.841556 
L 131.273983 19.751501 
L 131.273983 19.721482 
L 131.434175 19.721482 
L 131.487572 19.541371 
L 132.929294 19.451315 
L 132.929294 19.421296 
L 133.57006 19.331241 
L 133.57006 19.241185 
L 133.94384 19.151129 
L 134.050634 19.061074 
L 136.613696 18.971018 
L 136.613696 18.940999 
L 137.414653 18.850944 
L 137.521447 18.790907 
L 138.58939 18.700851 
L 138.58939 18.670832 
L 138.96317 18.580777 
L 138.96317 18.550758 
L 139.924318 18.460702 
L 139.924318 18.400665 
L 140.725275 18.31061 
L 140.725275 18.280591 
L 142.914557 18.190535 
L 142.914557 18.160517 
L 144.676663 18.10048 
L 144.676663 18.040442 
L 148.734844 17.950387 
L 148.734844 17.920368 
L 149.695993 17.830313 
L 149.74939 17.770275 
L 151.297907 17.710238 
L 151.297907 17.620183 
L 152.365849 17.530127 
L 152.365849 17.500108 
L 153.487189 17.410053 
L 153.487189 17.380034 
L 155.51628 17.289978 
L 155.51628 17.25996 
L 157.652165 17.169904 
L 157.705562 17.04983 
L 159.147285 16.959774 
L 159.147285 16.929756 
L 160.695801 16.8397 
L 160.695801 16.809681 
L 162.244318 16.719626 
L 162.297715 16.659588 
L 165.020969 16.569533 
L 165.020969 16.539514 
L 167.103457 16.449459 
L 167.103457 16.41944 
L 169.452931 16.329384 
L 169.452931 16.299366 
L 171.108242 16.20931 
L 171.215036 16.149273 
L 173.137333 16.059217 
L 173.137333 16.029199 
L 175.433409 15.939143 
L 175.433409 15.909124 
L 177.08872 15.819069 
L 177.08872 15.759032 
L 181.467285 15.668976 
L 181.467285 15.638957 
L 187.928337 15.548902 
L 187.928337 15.518883 
L 188.035132 15.518883 
L 194.602978 15.428827 
L 194.602978 15.398809 
L 204.80183 15.308753 
L 204.855227 15.278735 
L 210.141543 15.188679 
L 210.408529 15.15866 
L 222.583074 15.068605 
L 222.796663 15.038586 
L 232.942117 14.94853 
L 233.63628 14.918512 
L 266.849294 14.858475 
L 270.747285 14.798438 
L 278.917045 14.798438 
L 278.917045 14.798438 
" clip-path="url(#pb0b7c184c9)" style="fill: none; stroke-dasharray: 11.1,4.8; stroke-dashoffset: 0; stroke: #e9a001; stroke-width: 3"/>
   </g>
   <g id="line2d_11">
    <path d="M 76.007955 206.917249 
L 278.917045 14.798438 
" clip-path="url(#pb0b7c184c9)" style="fill: none; stroke-dasharray: 11.1,4.8; stroke-dashoffset: 0; stroke: #2ba77b; stroke-width: 3"/>
   </g>
   <g id="patch_3">
    <path d="M 65.8625 206.917249 
L 65.8625 12.877249 
" style="fill: none; stroke: #808080; stroke-width: 0.8; stroke-linejoin: miter; stroke-linecap: square"/>
   </g>
   <g id="patch_4">
    <path d="M 65.8625 206.917249 
L 289.0625 206.917249 
" style="fill: none; stroke: #808080; stroke-width: 0.8; stroke-linejoin: miter; stroke-linecap: square"/>
   </g>
   <g id="legend_1">
    <g id="patch_5">
     <path d="M 152.007812 201.917249 
L 282.0625 201.917249 
Q 284.0625 201.917249 284.0625 199.917249 
L 284.0625 142.204749 
Q 284.0625 140.204749 282.0625 140.204749 
L 152.007812 140.204749 
Q 150.007812 140.204749 150.007812 142.204749 
L 150.007812 199.917249 
Q 150.007812 201.917249 152.007812 201.917249 
z
" style="fill: #ffffff; opacity: 0.8; stroke: #cccccc; stroke-linejoin: miter"/>
    </g>
    <g id="line2d_12">
     <path d="M 154.007812 148.303187 
L 164.007812 148.303187 
L 174.007812 148.303187 
" style="fill: none; stroke: #7bbbe0; stroke-width: 3; stroke-linecap: square"/>
    </g>
    <g id="text_9">
     <!-- S1 Test area = 0.98 -->
     <g transform="translate(182.007812 151.803187) scale(0.1 -0.1)">
      <defs>
       <path id="DejaVuSans-53" d="M 3425 4513 
L 3425 3897 
Q 3066 4069 2747 4153 
Q 2428 4238 2131 4238 
Q 1616 4238 1336 4038 
Q 1056 3838 1056 3469 
Q 1056 3159 1242 3001 
Q 1428 2844 1947 2747 
L 2328 2669 
Q 3034 2534 3370 2195 
Q 3706 1856 3706 1288 
Q 3706 609 3251 259 
Q 2797 -91 1919 -91 
Q 1588 -91 1214 -16 
Q 841 59 441 206 
L 441 856 
Q 825 641 1194 531 
Q 1563 422 1919 422 
Q 2459 422 2753 634 
Q 3047 847 3047 1241 
Q 3047 1584 2836 1778 
Q 2625 1972 2144 2069 
L 1759 2144 
Q 1053 2284 737 2584 
Q 422 2884 422 3419 
Q 422 4038 858 4394 
Q 1294 4750 2059 4750 
Q 2388 4750 2728 4690 
Q 3069 4631 3425 4513 
z
" transform="scale(0.015625)"/>
       <path id="DejaVuSans-3d" d="M 678 2906 
L 4684 2906 
L 4684 2381 
L 678 2381 
L 678 2906 
z
M 678 1631 
L 4684 1631 
L 4684 1100 
L 678 1100 
L 678 1631 
z
" transform="scale(0.015625)"/>
       <path id="DejaVuSans-39" d="M 703 97 
L 703 672 
Q 941 559 1184 500 
Q 1428 441 1663 441 
Q 2288 441 2617 861 
Q 2947 1281 2994 2138 
Q 2813 1869 2534 1725 
Q 2256 1581 1919 1581 
Q 1219 1581 811 2004 
Q 403 2428 403 3163 
Q 403 3881 828 4315 
Q 1253 4750 1959 4750 
Q 2769 4750 3195 4129 
Q 3622 3509 3622 2328 
Q 3622 1225 3098 567 
Q 2575 -91 1691 -91 
Q 1453 -91 1209 -44 
Q 966 3 703 97 
z
M 1959 2075 
Q 2384 2075 2632 2365 
Q 2881 2656 2881 3163 
Q 2881 3666 2632 3958 
Q 2384 4250 1959 4250 
Q 1534 4250 1286 3958 
Q 1038 3666 1038 3163 
Q 1038 2656 1286 2365 
Q 1534 2075 1959 2075 
z
" transform="scale(0.015625)"/>
       <path id="DejaVuSans-38" d="M 2034 2216 
Q 1584 2216 1326 1975 
Q 1069 1734 1069 1313 
Q 1069 891 1326 650 
Q 1584 409 2034 409 
Q 2484 409 2743 651 
Q 3003 894 3003 1313 
Q 3003 1734 2745 1975 
Q 2488 2216 2034 2216 
z
M 1403 2484 
Q 997 2584 770 2862 
Q 544 3141 544 3541 
Q 544 4100 942 4425 
Q 1341 4750 2034 4750 
Q 2731 4750 3128 4425 
Q 3525 4100 3525 3541 
Q 3525 3141 3298 2862 
Q 3072 2584 2669 2484 
Q 3125 2378 3379 2068 
Q 3634 1759 3634 1313 
Q 3634 634 3220 271 
Q 2806 -91 2034 -91 
Q 1263 -91 848 271 
Q 434 634 434 1313 
Q 434 1759 690 2068 
Q 947 2378 1403 2484 
z
M 1172 3481 
Q 1172 3119 1398 2916 
Q 1625 2713 2034 2713 
Q 2441 2713 2670 2916 
Q 2900 3119 2900 3481 
Q 2900 3844 2670 4047 
Q 2441 4250 2034 4250 
Q 1625 4250 1398 4047 
Q 1172 3844 1172 3481 
z
" transform="scale(0.015625)"/>
      </defs>
      <use xlink:href="#DejaVuSans-53"/>
      <use xlink:href="#DejaVuSans-31" x="63.476562"/>
      <use xlink:href="#DejaVuSans-20" x="127.099609"/>
      <use xlink:href="#DejaVuSans-54" x="158.886719"/>
      <use xlink:href="#DejaVuSans-65" x="202.970703"/>
      <use xlink:href="#DejaVuSans-73" x="264.494141"/>
      <use xlink:href="#DejaVuSans-74" x="316.59375"/>
      <use xlink:href="#DejaVuSans-20" x="355.802734"/>
      <use xlink:href="#DejaVuSans-61" x="387.589844"/>
      <use xlink:href="#DejaVuSans-72" x="448.869141"/>
      <use xlink:href="#DejaVuSans-65" x="487.732422"/>
      <use xlink:href="#DejaVuSans-61" x="549.255859"/>
      <use xlink:href="#DejaVuSans-20" x="610.535156"/>
      <use xlink:href="#DejaVuSans-3d" x="642.322266"/>
      <use xlink:href="#DejaVuSans-20" x="726.111328"/>
      <use xlink:href="#DejaVuSans-30" x="757.898438"/>
      <use xlink:href="#DejaVuSans-2e" x="821.521484"/>
      <use xlink:href="#DejaVuSans-39" x="853.308594"/>
      <use xlink:href="#DejaVuSans-38" x="916.931641"/>
     </g>
    </g>
    <g id="line2d_13">
     <path d="M 154.007812 162.981312 
L 164.007812 162.981312 
L 174.007812 162.981312 
" style="fill: none; stroke-dasharray: 11.1,4.8; stroke-dashoffset: 0; stroke: #2274b2; stroke-width: 3"/>
    </g>
    <g id="text_10">
     <!-- S1 Val area  = 0.98 -->
     <g transform="translate(182.007812 166.481312) scale(0.1 -0.1)">
      <defs>
       <path id="DejaVuSans-56" d="M 1831 0 
L 50 4666 
L 709 4666 
L 2188 738 
L 3669 4666 
L 4325 4666 
L 2547 0 
L 1831 0 
z
" transform="scale(0.015625)"/>
      </defs>
      <use xlink:href="#DejaVuSans-53"/>
      <use xlink:href="#DejaVuSans-31" x="63.476562"/>
      <use xlink:href="#DejaVuSans-20" x="127.099609"/>
      <use xlink:href="#DejaVuSans-56" x="158.886719"/>
      <use xlink:href="#DejaVuSans-61" x="219.544922"/>
      <use xlink:href="#DejaVuSans-6c" x="280.824219"/>
      <use xlink:href="#DejaVuSans-20" x="308.607422"/>
      <use xlink:href="#DejaVuSans-61" x="340.394531"/>
      <use xlink:href="#DejaVuSans-72" x="401.673828"/>
      <use xlink:href="#DejaVuSans-65" x="440.537109"/>
      <use xlink:href="#DejaVuSans-61" x="502.060547"/>
      <use xlink:href="#DejaVuSans-20" x="563.339844"/>
      <use xlink:href="#DejaVuSans-20" x="595.126953"/>
      <use xlink:href="#DejaVuSans-3d" x="626.914062"/>
      <use xlink:href="#DejaVuSans-20" x="710.703125"/>
      <use xlink:href="#DejaVuSans-30" x="742.490234"/>
      <use xlink:href="#DejaVuSans-2e" x="806.113281"/>
      <use xlink:href="#DejaVuSans-39" x="837.900391"/>
      <use xlink:href="#DejaVuSans-38" x="901.523438"/>
     </g>
    </g>
    <g id="line2d_14">
     <path d="M 154.007812 177.659437 
L 164.007812 177.659437 
L 174.007812 177.659437 
" style="fill: none; stroke: #f3df3d; stroke-width: 3; stroke-linecap: square"/>
    </g>
    <g id="text_11">
     <!-- S2 Test area = 0.96 -->
     <g transform="translate(182.007812 181.159437) scale(0.1 -0.1)">
      <defs>
       <path id="DejaVuSans-32" d="M 1228 531 
L 3431 531 
L 3431 0 
L 469 0 
L 469 531 
Q 828 903 1448 1529 
Q 2069 2156 2228 2338 
Q 2531 2678 2651 2914 
Q 2772 3150 2772 3378 
Q 2772 3750 2511 3984 
Q 2250 4219 1831 4219 
Q 1534 4219 1204 4116 
Q 875 4013 500 3803 
L 500 4441 
Q 881 4594 1212 4672 
Q 1544 4750 1819 4750 
Q 2544 4750 2975 4387 
Q 3406 4025 3406 3419 
Q 3406 3131 3298 2873 
Q 3191 2616 2906 2266 
Q 2828 2175 2409 1742 
Q 1991 1309 1228 531 
z
" transform="scale(0.015625)"/>
       <path id="DejaVuSans-36" d="M 2113 2584 
Q 1688 2584 1439 2293 
Q 1191 2003 1191 1497 
Q 1191 994 1439 701 
Q 1688 409 2113 409 
Q 2538 409 2786 701 
Q 3034 994 3034 1497 
Q 3034 2003 2786 2293 
Q 2538 2584 2113 2584 
z
M 3366 4563 
L 3366 3988 
Q 3128 4100 2886 4159 
Q 2644 4219 2406 4219 
Q 1781 4219 1451 3797 
Q 1122 3375 1075 2522 
Q 1259 2794 1537 2939 
Q 1816 3084 2150 3084 
Q 2853 3084 3261 2657 
Q 3669 2231 3669 1497 
Q 3669 778 3244 343 
Q 2819 -91 2113 -91 
Q 1303 -91 875 529 
Q 447 1150 447 2328 
Q 447 3434 972 4092 
Q 1497 4750 2381 4750 
Q 2619 4750 2861 4703 
Q 3103 4656 3366 4563 
z
" transform="scale(0.015625)"/>
      </defs>
      <use xlink:href="#DejaVuSans-53"/>
      <use xlink:href="#DejaVuSans-32" x="63.476562"/>
      <use xlink:href="#DejaVuSans-20" x="127.099609"/>
      <use xlink:href="#DejaVuSans-54" x="158.886719"/>
      <use xlink:href="#DejaVuSans-65" x="202.970703"/>
      <use xlink:href="#DejaVuSans-73" x="264.494141"/>
      <use xlink:href="#DejaVuSans-74" x="316.59375"/>
      <use xlink:href="#DejaVuSans-20" x="355.802734"/>
      <use xlink:href="#DejaVuSans-61" x="387.589844"/>
      <use xlink:href="#DejaVuSans-72" x="448.869141"/>
      <use xlink:href="#DejaVuSans-65" x="487.732422"/>
      <use xlink:href="#DejaVuSans-61" x="549.255859"/>
      <use xlink:href="#DejaVuSans-20" x="610.535156"/>
      <use xlink:href="#DejaVuSans-3d" x="642.322266"/>
      <use xlink:href="#DejaVuSans-20" x="726.111328"/>
      <use xlink:href="#DejaVuSans-30" x="757.898438"/>
      <use xlink:href="#DejaVuSans-2e" x="821.521484"/>
      <use xlink:href="#DejaVuSans-39" x="853.308594"/>
      <use xlink:href="#DejaVuSans-36" x="916.931641"/>
     </g>
    </g>
    <g id="line2d_15">
     <path d="M 154.007812 192.337562 
L 164.007812 192.337562 
L 174.007812 192.337562 
" style="fill: none; stroke-dasharray: 11.1,4.8; stroke-dashoffset: 0; stroke: #e9a001; stroke-width: 3"/>
    </g>
    <g id="text_12">
     <!-- S2 Val area  = 0.96 -->
     <g transform="translate(182.007812 195.837562) scale(0.1 -0.1)">
      <use xlink:href="#DejaVuSans-53"/>
      <use xlink:href="#DejaVuSans-32" x="63.476562"/>
      <use xlink:href="#DejaVuSans-20" x="127.099609"/>
      <use xlink:href="#DejaVuSans-56" x="158.886719"/>
      <use xlink:href="#DejaVuSans-61" x="219.544922"/>
      <use xlink:href="#DejaVuSans-6c" x="280.824219"/>
      <use xlink:href="#DejaVuSans-20" x="308.607422"/>
      <use xlink:href="#DejaVuSans-61" x="340.394531"/>
      <use xlink:href="#DejaVuSans-72" x="401.673828"/>
      <use xlink:href="#DejaVuSans-65" x="440.537109"/>
      <use xlink:href="#DejaVuSans-61" x="502.060547"/>
      <use xlink:href="#DejaVuSans-20" x="563.339844"/>
      <use xlink:href="#DejaVuSans-20" x="595.126953"/>
      <use xlink:href="#DejaVuSans-3d" x="626.914062"/>
      <use xlink:href="#DejaVuSans-20" x="710.703125"/>
      <use xlink:href="#DejaVuSans-30" x="742.490234"/>
      <use xlink:href="#DejaVuSans-2e" x="806.113281"/>
      <use xlink:href="#DejaVuSans-39" x="837.900391"/>
      <use xlink:href="#DejaVuSans-36" x="901.523438"/>
     </g>
    </g>
   </g>
  </g>
 </g>
 <defs>
  <clipPath id="pb0b7c184c9">
   <rect x="65.8625" y="12.877249" width="223.2" height="194.04"/>
  </clipPath>
 </defs>
</svg>
